<svg xmlns="http://www.w3.org/2000/svg" width="40.59" height="92.001" viewBox="0 0 40.59 92.001">
  <g id="Group_687" data-name="Group 687" transform="translate(-1381.41 -160)">
    <g id="Group_678" data-name="Group 678" transform="translate(-244 -26)">
      <path id="Union_45" data-name="Union 45" d="M17.29,36.748l-16.825-17a1.623,1.623,0,0,1,0-2.273L17.29.47a1.573,1.573,0,0,1,2.243,0,1.613,1.613,0,0,1,0,2.266L5.376,17.042H38.983a1.6,1.6,0,1,1,0,3.206H5.449L19.533,34.481a1.616,1.616,0,0,1,0,2.267,1.575,1.575,0,0,1-2.243,0Z" transform="translate(1666 233.218) rotate(180)" fill="#99aec4"/>
      <text id="More" transform="translate(1628 275.001)" fill="#203e5d" font-size="16" font-family="ArialMT, Arial"><tspan x="0" y="0">More</tspan></text>
    </g>
    <g id="Rectangle_524" data-name="Rectangle 524" transform="translate(1381.41 160)" fill="rgba(255,255,255,0)" stroke="rgba(255,255,255,0)" stroke-width="1">
      <rect width="40.59" height="10" stroke="none"/>
      <rect x="0.5" y="0.5" width="39.59" height="9" fill="none"/>
    </g>
  </g>
</svg>
