<svg xmlns="http://www.w3.org/2000/svg" width="54.35" height="88" viewBox="0 0 54.35 88">
  <g id="Group_3897" data-name="Group 3897" transform="translate(-8199 2910)">
    <g id="Group_3743" data-name="Group 3743" transform="translate(8199 -2904.133)">
      <path id="Path_5443" data-name="Path 5443" d="M899.709,794.622c0,3.22-4.934,5.83-11.021,5.83s-11.021-2.61-11.021-5.83,4.934-5.831,11.021-5.831S899.709,791.4,899.709,794.622Z" transform="translate(-877.667 -735.532)" opacity="0.2"/>
      <path id="Path_5444" data-name="Path 5444" d="M904.144,799.434c.839.6.636,2.321-.452,3.846s-2.651,2.274-3.491,1.675-.635-2.32.453-3.844S903.306,798.835,904.144,799.434Z" transform="translate(-893.036 -742.817)"/>
      <path id="Path_5445" data-name="Path 5445" d="M920.144,799.434c.839.6.636,2.321-.452,3.846s-2.651,2.274-3.491,1.675-.635-2.32.453-3.844S919.306,798.835,920.144,799.434Z" transform="translate(-904.205 -742.817)"/>
      <path id="Path_5446" data-name="Path 5446" d="M893.7,722.725a88.181,88.181,0,0,1,1.147,11.941c0,8.227-.2,11.389-.134,13.66.645,1.582,3.166,2.4,4.15-.7.324-1.871-.941-21.938.409-21.59,1.538.4.455,20.135,1.035,23.019,1.229,1.862,3.231.383,3.747-1.549,0-.8-.429-23.559.162-24.69q.005-.783.011-1.548l-10.595-.358C893.676,721.577,893.7,722.184,893.7,722.725Z" transform="translate(-888.813 -688.144)" fill="#3b2612"/>
      <path id="Path_5447" data-name="Path 5447" d="M965.453,678.281c.275.608-.187,1.41-1.033,1.792a1.5,1.5,0,0,1-2.028-.41c-.274-.608.187-1.411,1.032-1.793A1.5,1.5,0,0,1,965.453,678.281Z" transform="translate(-936.755 -657.964)" fill="#d7c8af"/>
      <path id="Path_5448" data-name="Path 5448" d="M914.372,658.931l-5.44,1.683s-4.815-7.879-6.209-9.091a4.519,4.519,0,0,0-2.051-1.217,4.986,4.986,0,0,1-3.025-.477c-.409.01-1.156-.064-1.308.078-2.089,1.947-2.593,5.575-2.593,11.319,0,3.9-.11,8.275-.11,10.058,3.925,2.515,8.793,1.3,10.65.358.008-1.066.052-11.752.057-12.112,1.721,1.873,3.231,4.531,4.145,4.653,1.306.174,7.054-2.906,7.054-2.906Z" transform="translate(-888.813 -638.521)" fill="#754c24"/>
      <path id="Path_5449" data-name="Path 5449" d="M903.963,624.973a5,5,0,0,1-1.461-.659c1.626-.472,2.857-2.684,2.857-5.345,0-3.005-1.569-5.441-3.5-5.441s-3.5,2.436-3.5,5.441c0,2.6,1.179,4.778,2.753,5.313-.015.27-.421.294-.575.224A7.407,7.407,0,0,0,903.963,624.973Z" transform="translate(-892.105 -613.189)" fill="#d7c8af"/>
      <path id="Path_5450" data-name="Path 5450" d="M896.352,622.966c-2.186-1.323-3.492-4.251-3.492-7.32,0-1.917,2.261-3.241,4.353-3.241,3.047,0,4.461,2.334,4.005,3.067-1.132.348-.958,2.656-2.177,2.656C898.345,621.333,897.474,622.262,896.352,622.966Z" transform="translate(-888.272 -612.405)" fill="#36322c"/>
    </g>
    <g id="Group_3744" data-name="Group 3744" transform="translate(8223.917 -2910)">
      <path id="Path_5451" data-name="Path 5451" d="M1006.709,772.622c0,3.22-4.934,5.83-11.021,5.83s-11.021-2.61-11.021-5.83,4.934-5.831,11.021-5.831S1006.709,769.4,1006.709,772.622Z" transform="translate(-977.276 -714.308)" opacity="0.2"/>
      <path id="Path_5452" data-name="Path 5452" d="M992.648,781.523c-.606.382-1.944,1.081-1.422,2.183s2.375.636,3.242.163c1.326-.723,1.817-1.534,1.9-2.062C996.608,780.272,993.219,781.163,992.648,781.523Z" transform="translate(-981.772 -724.183)" fill="#7c571d"/>
      <path id="Path_5453" data-name="Path 5453" d="M1032.858,780.8c-.447.559-1.609,1.8-.628,2.528,1.55,1.148,3-.386,3.664-1.117a2.153,2.153,0,0,0,.571-2.361C1036.19,778.321,1033.28,780.274,1032.858,780.8Z" transform="translate(-1010.21 -723.024)" fill="#7c571d"/>
      <path id="Path_5454" data-name="Path 5454" d="M973.841,642.261c-2.235,3.09-4.762,6.749-5.293,6.942-1.025.105-3.737.793-5.541.513a2.083,2.083,0,0,0-.791-.5,1.493,1.493,0,0,0-1.977.581c-.222.629.312,1.39,1.186,1.7a1.8,1.8,0,0,0,1.678-.159,17.6,17.6,0,0,0,6.4-.056,35.137,35.137,0,0,0,4.821-5.171Z" transform="translate(-960.189 -627.379)" fill="#d7c8af"/>
      <path id="Path_5455" data-name="Path 5455" d="M1038.061,640l-.437,5.364a43.786,43.786,0,0,1,2.412,3.871c.423.983,1.1,9.256,1.023,9.864-.357.654-.777.242-.578,1.453.211,1.286,1.959.417,2.125-.849.172-1.311.113-10.148-.584-11.839C1041.859,647.468,1038.3,640.393,1038.061,640Z" transform="translate(-1014.242 -625.801)" fill="#d7c8af"/>
      <path id="Path_5456" data-name="Path 5456" d="M1012.293,640.848c-1.636-3.949-3.078-6.183-3.575-6.485-.478-.29-1.618-1.223-2.78-1.862-1.039.8-2.079.371-3.118-.143a22.882,22.882,0,0,0-3.129,1.921c-.668.555-1.926,2.266-3.747,4.4l1.689,2.482c.828-.87,1.294-1.453,1.294-1.453a70.569,70.569,0,0,0,.692,7.75c.947,1.583,4.112,2,5.476,1.85s4.728-3.433,4.708-4.753c-.012-.825-.163-2.565-.163-2.565l.437.675Z" transform="translate(-985.148 -620.466)" fill="#b2ddfb"/>
      <path id="Path_5457" data-name="Path 5457" d="M1015.686,613.667c-.319-.175-.632-.339-.919-.478.981-.377,2.941-3.091,3.056-4.6s-2.376-3.168-3.509-3.208-4.347.618-4.4,1.761c-.111,2.367,1.349,5.155,3.29,6.055-.217.108-.428.218-.636.329C1013.607,614.037,1014.647,614.467,1015.686,613.667Z" transform="translate(-994.896 -601.632)" fill="#d7c8af"/>
      <path id="Path_5458" data-name="Path 5458" d="M1009.974,666.964s-1.489-6.672-1.245-7.72,1.417-10.182,1.417-10.182l.1-3.789-3.122-6.81.811-4.271-1.208-.759-.66,4.665h-2.189l-1.149-4.716-.963.591.475,4.518s-2.442,7.094-2.161,10.064a42.233,42.233,0,0,1,.063,7.894s-1.119,6.908-1.781,9.935-1.781,11.476-1.781,11.476a2.036,2.036,0,0,0,1.636,1.24c1.713.157,2.039.084,2.556-.433,0,0,2.5-18,3.5-17.371.732.461,1.212,4.195,2.024,7.978a85.459,85.459,0,0,0,2.34,8.983c.453.732,1.057.981,2.265,1.208a1.829,1.829,0,0,0,1.839-.855Z" transform="translate(-985.594 -621.181)" fill="#3fa9f5"/>
      <path id="Path_5459" data-name="Path 5459" d="M1015.528,655.887c.679-.679,3.246-.6,3.925,0a31.91,31.91,0,0,1,.453,4.254c-.3.917-4.547.7-4.925.068S1015.528,655.887,1015.528,655.887Z" transform="translate(-998.374 -636.554)" fill="#2f7db5"/>
      <path id="Path_5460" data-name="Path 5460" d="M1007,598.72c2.117-.83,7.473-.29,9.436,1.748-.453-1.434.368-5.6-1.635-6.738a4.8,4.8,0,0,0-5.045-.071C1008.029,594.8,1007.834,597.587,1007,598.72Z" transform="translate(-992.865 -592.975)" fill="#fbb03b"/>
    </g>
    <text id="Close" transform="translate(8204 -2825)" fill="#0071bc" font-size="16" font-family="Arial-BoldMT, Arial" font-weight="700"><tspan x="0" y="0">Close</tspan></text>
  </g>
</svg>
