<svg xmlns="http://www.w3.org/2000/svg" width="107.489" height="88" viewBox="0 0 107.489 88">
  <g id="Group_3894" data-name="Group 3894" transform="translate(-7775 2910)">
    <g id="Group_3059" data-name="Group 3059" transform="translate(7795.932 -2910)">
      <ellipse id="Ellipse_455" data-name="Ellipse 455" cx="13.799" cy="6.352" rx="13.799" ry="6.352" transform="translate(3.474 51.922)" opacity="0.2"/>
      <path id="Path_4713" data-name="Path 4713" d="M944.638,380.52c-.6.379-1.931,1.074-1.412,2.169s2.359.632,3.221.162c1.317-.718,1.8-1.524,1.887-2.048C948.572,379.276,945.205,380.162,944.638,380.52Z" transform="translate(-935.401 -323.553)" fill="#7c571d"/>
      <path id="Path_4714" data-name="Path 4714" d="M984.851,379.792c-.444.556-1.6,1.791-.624,2.512,1.54,1.14,2.98-.383,3.64-1.11a2.139,2.139,0,0,0,.568-2.346C988.161,377.327,985.271,379.268,984.851,379.792Z" transform="translate(-963.92 -322.391)" fill="#7c571d"/>
      <path id="Path_4715" data-name="Path 4715" d="M927.537,257.631c-.543-.106-3.049-.1-2.386.421,1.942,1.538,2.38,2.1,3.477,2,.685-.063,3.181-3.072,4.729-4.7l-1.61-1.779C929.906,255.73,928.087,257.738,927.537,257.631Z" transform="translate(-922.754 -235.093)" fill="#d7c8af"/>
      <path id="Path_4716" data-name="Path 4716" d="M964.184,238.589c-1.716-2.393-3.536-4.8-3.932-5.239a14.373,14.373,0,0,0-2.762-1.85c-1.033.8-2.065.368-3.1-.142a16.747,16.747,0,0,0-2.694,1.72c-.664.551-2.493,2.82-4.3,4.943l1.61,1.779c.823-.865,1.421-1.529,1.421-1.529s.258,5.114.784,8.09c.94,1.573,4.085,1.988,5.44,1.838s4.7-3.411,4.677-4.722c-.012-.82-.246-3.587-.246-3.587a4.306,4.306,0,0,1,1.1.809Z" transform="translate(-938.403 -219.543)" fill="#b2ddfb"/>
      <path id="Path_4717" data-name="Path 4717" d="M967.649,212.612c-.317-.174-.628-.337-.913-.475.975-.375,2.922-3.071,3.036-4.573s-2.361-3.147-3.486-3.187-4.318.614-4.371,1.749c-.11,2.352,1.34,5.121,3.268,6.016-.216.108-.426.217-.632.327C965.583,212.981,966.616,213.408,967.649,212.612Z" transform="translate(-948.562 -200.656)" fill="#d7c8af"/>
      <path id="Path_4718" data-name="Path 4718" d="M961.886,265.744s-1.479-6.629-1.236-7.67,1.408-10.116,1.408-10.116l.1-3.764-3.1-6.766.805-4.243-1.2-.754-.656,4.635h-2.175l-1.141-4.685-.957.587.472,4.489s-2.426,7.048-2.147,10a41.959,41.959,0,0,1,.062,7.842s-1.111,6.863-1.769,9.87-1.769,11.4-1.769,11.4a2.023,2.023,0,0,0,1.625,1.231c1.7.156,2.026.083,2.54-.43,0,0,2.485-17.881,3.474-17.257.727.458,1.2,4.167,2.011,7.926a84.921,84.921,0,0,0,2.325,8.924c.45.727,1.05.975,2.25,1.2a1.817,1.817,0,0,0,1.827-.849Z" transform="translate(-939.234 -220.261)" fill="#3fa9f5"/>
      <path id="Path_4719" data-name="Path 4719" d="M967.524,254.883c.675-.675,3.225-.6,3.9,0a31.689,31.689,0,0,1,.45,4.226c-.3.911-4.517.694-4.892.068S967.524,254.883,967.524,254.883Z" transform="translate(-952.05 -235.677)" fill="#2f7db5"/>
      <path id="Path_4720" data-name="Path 4720" d="M938.559,268.017l-18.045-8.059-.437-5.728-2.658-7.117,18.044,8.059.269,5.107Z" transform="translate(-917.418 -230.573)" fill="#a9ddf3"/>
      <path id="Path_4721" data-name="Path 4721" d="M925.409,268.509l9.559,5.725-8.983-4.64Z" transform="translate(-923.012 -245.551)" fill="#2f7db5" opacity="0.2"/>
      <path id="Path_4722" data-name="Path 4722" d="M923.814,268.911l8.406,2.273-7.8-1.64Z" transform="translate(-921.896 -245.832)" fill="#2f7db5" opacity="0.2"/>
      <path id="Path_4723" data-name="Path 4723" d="M922.756,264.493c-.858,1.018.5,2.579,1.164,3.1C925.036,268.091,924.141,265.42,922.756,264.493Z" transform="translate(-920.962 -242.739)" fill="#d7c8af"/>
      <path id="Path_4724" data-name="Path 4724" d="M983.768,255.464l-2.005,2.111c1.311,1.208,2.627,3.074,2.005,3.447-.663.952-5.811,5.053-6.786,5.278-.065-.348-1.038-.581-1.362-.166-.662.849.1,1.8,1.181,1.94,1.328.169,9.909-5.554,9.909-7.1A20.439,20.439,0,0,0,983.768,255.464Z" transform="translate(-957.988 -236.419)" fill="#d7c8af"/>
      <path id="Path_4725" data-name="Path 4725" d="M959,197.682c2.1-.825,7.424-.288,9.374,1.737-.45-1.425.365-5.561-1.624-6.694a4.772,4.772,0,0,0-5.012-.07C960.022,193.784,959.829,196.557,959,197.682Z" transform="translate(-946.526 -191.975)" fill="#fbb03b"/>
    </g>
    <g id="Group_3181" data-name="Group 3181" transform="translate(7849.102 -2907.799)">
      <path id="Path_4834" data-name="Path 4834" d="M1171,192.645l20.448,11.805L1171,216.256Z" transform="translate(-1158.101 -192.645)" fill="#e37474" opacity="0.7"/>
      <rect id="Rectangle_863" data-name="Rectangle 863" width="4.5" height="12.899" transform="translate(6.3 5.506)" fill="#e37474" opacity="0.7"/>
      <rect id="Rectangle_864" data-name="Rectangle 864" width="4.2" height="12.899" transform="translate(0 5.506)" fill="#e37474" opacity="0.7"/>
      <path id="Path_4835" data-name="Path 4835" d="M1171,204.566V192.811l20.489,11.756Z" transform="translate(-1158.101 -192.761)" fill="#e37474" opacity="0.7"/>
      <rect id="Rectangle_865" data-name="Rectangle 865" width="4.5" height="6.6" transform="translate(6.3 11.806)" fill="#e37474" opacity="0.7"/>
      <rect id="Rectangle_866" data-name="Rectangle 866" width="4.2" height="6.6" transform="translate(0 11.806)" fill="#e37474" opacity="0.7"/>
    </g>
    <g id="Group_3182" data-name="Group 3182" transform="translate(7783 -2869.436)">
      <path id="Path_4836" data-name="Path 4836" d="M876.917,367.185l3.6,2.191-2.792,1.2-3.415-2.364Z" transform="translate(-874.311 -355.191)" fill="#391508" opacity="0.7"/>
      <path id="Path_4837" data-name="Path 4837" d="M883,349.482l3.6,2.191v-8.041l-3.6-1.737Z" transform="translate(-880.393 -337.487)" fill="#8e5541"/>
      <path id="Path_4838" data-name="Path 4838" d="M897.391,328.837l-3.305-1.637L883,331.6v.006l3.6,1.737v-.006Z" transform="translate(-880.393 -327.2)" fill="#c6aaa0"/>
      <path id="Path_4839" data-name="Path 4839" d="M905.8,332.656l-10.8,4.5v8.047l10.8-4.889Z" transform="translate(-888.794 -331.02)" fill="#f15a24"/>
      <path id="Path_4840" data-name="Path 4840" d="M905.8,339.427,895,343.858v-1.2l10.8-4.432Z" transform="translate(-888.794 -334.919)" fill="#2c1107"/>
      <path id="Path_4841" data-name="Path 4841" d="M883,348.766l3.6,1.63v-1.2l-3.6-1.63Z" transform="translate(-880.393 -341.457)" fill="#7f2f13"/>
      <path id="Path_4842" data-name="Path 4842" d="M904.2,348.234l-1.2.5v.5l1.2-.485Z" transform="translate(-894.394 -341.925)" fill="#c6aaa0"/>
      <path id="Path_4843" data-name="Path 4843" d="M902.991,350.748l0,.473,1.2-.5,0-.456Z" transform="translate(-894.388 -343.345)" fill="#c6aaa0"/>
      <path id="Path_4844" data-name="Path 4844" d="M921.2,341.234l-1.2.5v.5l1.2-.485Z" transform="translate(-906.294 -337.024)" fill="#c6aaa0"/>
      <path id="Path_4845" data-name="Path 4845" d="M919.991,343.748l0,.473,1.2-.5,0-.456Z" transform="translate(-906.288 -338.445)" fill="#c6aaa0"/>
      <path id="Path_4846" data-name="Path 4846" d="M900.02,339.542c.037.151-.135.324-.385.385s-.481-.012-.519-.163.135-.324.384-.385S899.983,339.391,900.02,339.542Z" transform="translate(-891.672 -335.71)" opacity="0.7"/>
      <path id="Path_4847" data-name="Path 4847" d="M912.96,334.565c.037.15-.142.322-.4.385s-.495-.007-.532-.157.142-.322.4-.385S912.923,334.415,912.96,334.565Z" transform="translate(-900.711 -332.23)" opacity="0.7"/>
      <path id="Path_4848" data-name="Path 4848" d="M904.06,327.39s-3.22,1.285-3.479,1.4-.454.317-.453.52l.008,1.9c0,.2.172.168.385.15l.2-.188-.005-1.067a.7.7,0,0,1,.354-.528c.206-.1,2.622-1.067,2.622-1.067.163-.014.261.121.262.4l0,.78.107.144c.212-.018.483-.022.482-.224l-.008-1.9C904.543,327.513,904.272,327.372,904.06,327.39Z" transform="translate(-892.383 -327.332)" fill="#55200d"/>
    </g>
    <text id="Complete" transform="translate(7775 -2825)" fill="#0071bc" font-size="16" font-family="Arial-BoldMT, Arial" font-weight="700"><tspan x="0" y="0">Complete</tspan></text>
  </g>
</svg>
