<svg xmlns="http://www.w3.org/2000/svg" width="107.209" height="92" viewBox="0 0 107.209 92">
  <g id="Group_3890" data-name="Group 3890" transform="translate(-7246 2913)">
    <g id="Group_2241" data-name="Group 2241" transform="translate(7263.229 -2913)">
      <ellipse id="Ellipse_449" data-name="Ellipse 449" cx="15.69" cy="5.687" rx="15.69" ry="5.687" transform="translate(3.874 51.992)" opacity="0.2"/>
      <path id="Path_3914" data-name="Path 3914" d="M575.634,1180.518c-.6.379-1.927,1.071-1.409,2.164s2.354.631,3.214.162c1.315-.717,1.8-1.521,1.883-2.044C579.561,1179.277,576.2,1180.161,575.634,1180.518Z" transform="translate(-564.065 -1123.674)" fill="#7c571d"/>
      <path id="Path_3915" data-name="Path 3915" d="M615.849,1179.788c-.443.554-1.595,1.787-.622,2.506,1.537,1.138,2.974-.382,3.632-1.107a2.134,2.134,0,0,0,.566-2.341C619.152,1177.329,616.268,1179.266,615.849,1179.788Z" transform="translate(-592.61 -1122.511)" fill="#7c571d"/>
      <path id="Path_3916" data-name="Path 3916" d="M547.683,1056.5c-.542-.106-6.338-4.027-7.04-4.5-.341-.233.346,1.02,1.842,2-1.5-.581-.006.656.655,1.179,1.938,1.534,4.536,3.834,5.631,3.733.684-.063,3.174-3.066,4.719-4.687l-1.607-1.776C550.048,1054.6,548.232,1056.6,547.683,1056.5Z" transform="translate(-540.558 -1034.007)" fill="#f1e6d5"/>
      <path id="Path_3917" data-name="Path 3917" d="M595.148,1038.573c-1.713-2.388-3.528-4.79-3.924-5.228a14.34,14.34,0,0,0-2.756-1.846c-1.03.794-2.061.368-3.091-.142a16.7,16.7,0,0,0-2.688,1.717c-.663.55-2.488,2.814-4.293,4.932l1.607,1.776c.821-.863,1.418-1.526,1.418-1.526s.257,5.1.783,8.073c.938,1.569,4.076,1.984,5.428,1.834s4.687-3.4,4.667-4.711c-.012-.818-.246-3.579-.246-3.579a4.3,4.3,0,0,1,1.094.807Z" transform="translate(-567.07 -1019.569)" fill="#b2ddfb"/>
      <path id="Path_3918" data-name="Path 3918" d="M598.636,1012.595c-.316-.174-.626-.336-.911-.474.973-.374,2.915-3.065,3.029-4.563s-2.356-3.141-3.478-3.18-4.309.612-4.362,1.746c-.11,2.346,1.337,5.11,3.261,6-.215.107-.425.216-.63.326C596.575,1012.962,597.606,1013.389,598.636,1012.595Z" transform="translate(-577.238 -1000.664)" fill="#f1e6d5"/>
      <path id="Path_3919" data-name="Path 3919" d="M592.858,1065.672s-1.476-6.615-1.234-7.653,1.4-10.094,1.4-10.094l.1-3.756-3.1-6.751.8-4.234-1.2-.752-.654,4.625h-2.17l-1.139-4.675-.955.586.471,4.479s-2.421,7.033-2.143,9.976a41.869,41.869,0,0,1,.062,7.825s-1.109,6.848-1.765,9.849-1.766,11.377-1.766,11.377a2.018,2.018,0,0,0,1.621,1.229c1.7.156,2.021.083,2.534-.429,0,0,2.48-17.842,3.467-17.22.725.457,1.2,4.158,2.006,7.909a84.713,84.713,0,0,0,2.32,8.905c.449.726,1.048.973,2.245,1.2a1.813,1.813,0,0,0,1.823-.847Z" transform="translate(-567.901 -1020.287)" fill="#3fa9f5"/>
      <path id="Path_3920" data-name="Path 3920" d="M598.522,1054.882c.673-.673,3.218-.6,3.891,0a31.631,31.631,0,0,1,.449,4.217c-.3.909-4.508.692-4.882.068S598.522,1054.882,598.522,1054.882Z" transform="translate(-580.729 -1035.718)" fill="#2f7db5"/>
      <path id="Path_3921" data-name="Path 3921" d="M617.553,1055.464l-2,2.106c1.308,1.205,3.075,3.418,2.455,3.79-.661.949-5.056,5.589-6.029,5.814-.065-.347-1.036-.58-1.359-.165-.66.847.1,1.8,1.179,1.936,1.325.168,8.691-6.44,8.691-7.982A20.393,20.393,0,0,0,617.553,1055.464Z" transform="translate(-589.475 -1036.46)" fill="#f1e6d5"/>
      <path id="Path_3922" data-name="Path 3922" d="M590,997.67c2.1-.823,7.408-.288,9.354,1.733-.449-1.422.365-5.549-1.621-6.68a4.762,4.762,0,0,0-5-.07C591.02,993.78,590.827,996.547,590,997.67Z" transform="translate(-575.2 -991.975)" fill="#fbb03b"/>
      <g id="Group_2240" data-name="Group 2240" transform="translate(20.69 28.038)">
        <path id="Path_3923" data-name="Path 3923" d="M609.677,1085.771a5.323,5.323,0,0,1,1.983-.052l-.09,3.026-1.581.108Z" transform="translate(-609.677 -1085.645)" fill="#393632"/>
        <path id="Path_3924" data-name="Path 3924" d="M611.326,1087.8c0,.077-.1.14-.214.14s-.214-.063-.214-.14.1-.14.214-.14S611.326,1087.724,611.326,1087.8Z" transform="translate(-610.533 -1087.058)" fill="#615e5b"/>
      </g>
    </g>
    <g id="Group_2450" data-name="Group 2450" transform="translate(7319.935 -2912.982)">
      <path id="Path_4108" data-name="Path 4108" d="M773,992.034l20.4,11.78-20.4,11.78Z" transform="translate(-760.129 -992.034)" fill="#e37474" opacity="0.7"/>
      <rect id="Rectangle_778" data-name="Rectangle 778" width="4.49" height="12.871" transform="translate(6.286 5.378)" fill="#e37474" opacity="0.7"/>
      <rect id="Rectangle_779" data-name="Rectangle 779" width="4.191" height="12.871" transform="translate(0 5.378)" fill="#e37474" opacity="0.7"/>
      <path id="Path_4109" data-name="Path 4109" d="M773,1003.814V992.2l20.319,11.614Z" transform="translate(-760.129 -992.15)" fill="#e37474" opacity="0.7"/>
      <rect id="Rectangle_780" data-name="Rectangle 780" width="4.49" height="6.585" transform="translate(6.286 11.664)" fill="#e37474" opacity="0.7"/>
      <rect id="Rectangle_781" data-name="Rectangle 781" width="4.191" height="6.585" transform="translate(0 11.664)" fill="#e37474" opacity="0.7"/>
    </g>
    <g id="Group_2451" data-name="Group 2451" transform="translate(7246 -2912.993)">
      <path id="Path_4110" data-name="Path 4110" d="M483,992l8.681,3.554v9.48L483,1001.48Z" transform="translate(-483 -992)" fill="#f7931e"/>
      <path id="Path_4111" data-name="Path 4111" d="M489.952,1001.127c-1.8-.743-3.264.26-3.264,2.241a5.742,5.742,0,0,0,3.264,4.932c1.8.743,3.264-.26,3.264-2.241A5.742,5.742,0,0,0,489.952,1001.127Zm.421,4.478v2.17l-.9-.471v-2.17l-2.1-.811v-1.256l2.1.811v-2.17l.9.471v2.17l2.1.815v1.257Z" transform="translate(-485.583 -998.223)" fill="#fff" opacity="0.7"/>
    </g>
    <g id="Group_2452" data-name="Group 2452" transform="translate(7247.197 -2897.128)">
      <path id="Path_4112" data-name="Path 4112" d="M487,1045l8.681,3.554v9.48L487,1054.48Z" transform="translate(-487 -1045)" fill="#f7931e"/>
      <path id="Path_4113" data-name="Path 4113" d="M493.952,1054.127c-1.8-.743-3.264.26-3.264,2.241a5.742,5.742,0,0,0,3.264,4.932c1.8.743,3.264-.26,3.264-2.241A5.742,5.742,0,0,0,493.952,1054.127Zm.421,4.478v2.17l-.9-.471v-2.17l-2.1-.811v-1.256l2.1.811v-2.17l.9.471v2.17l2.1.815v1.257Z" transform="translate(-489.583 -1051.223)" fill="#fff" opacity="0.7"/>
    </g>
    <g id="Group_2453" data-name="Group 2453" transform="translate(7258.871 -2904.312)">
      <path id="Path_4114" data-name="Path 4114" d="M526,1021l8.681,3.554v9.48L526,1030.48Z" transform="translate(-526 -1021)" fill="#f7931e"/>
      <path id="Path_4115" data-name="Path 4115" d="M532.952,1030.127c-1.8-.743-3.265.26-3.265,2.241a5.742,5.742,0,0,0,3.265,4.932c1.8.743,3.264-.26,3.264-2.241A5.742,5.742,0,0,0,532.952,1030.127Zm.421,4.478v2.17l-.9-.471v-2.17l-2.1-.811v-1.256l2.1.811v-2.17l.9.471v2.17l2.1.815v1.257Z" transform="translate(-528.583 -1027.223)" fill="#fff" opacity="0.7"/>
    </g>
    <g id="Group_2454" data-name="Group 2454" transform="translate(7258.871 -2892.339)">
      <path id="Path_4116" data-name="Path 4116" d="M526,1061l8.681,3.554v9.48L526,1070.48Z" transform="translate(-526 -1061)" fill="#f7931e"/>
      <path id="Path_4117" data-name="Path 4117" d="M532.952,1070.127c-1.8-.743-3.265.26-3.265,2.241a5.742,5.742,0,0,0,3.265,4.932c1.8.743,3.264-.26,3.264-2.241A5.743,5.743,0,0,0,532.952,1070.127Zm.421,4.478v2.17l-.9-.472v-2.17l-2.1-.811v-1.256l2.1.811v-2.17l.9.471v2.17l2.1.815v1.257Z" transform="translate(-528.583 -1067.223)" fill="#fff" opacity="0.7"/>
    </g>
    <text id="Create" transform="translate(7259 -2824)" fill="#0071bc" font-size="16" font-family="Arial-BoldMT, Arial" font-weight="700"><tspan x="0" y="0">Create</tspan></text>
  </g>
</svg>
