<svg xmlns="http://www.w3.org/2000/svg" xmlns:xlink="http://www.w3.org/1999/xlink" width="119.329" height="92" viewBox="0 0 119.329 92">
  <defs>
    <linearGradient id="linear-gradient" x1="0.299" y1="1.279" x2="0.592" y2="0.089" gradientUnits="objectBoundingBox">
      <stop offset="0" stop-color="#fff" stop-opacity="0"/>
      <stop offset="1" stop-color="#5c5c5c"/>
    </linearGradient>
    <linearGradient id="linear-gradient-2" x1="-0.054" y1="1.192" x2="0.717" y2="0.189" gradientUnits="objectBoundingBox">
      <stop offset="0" stop-color="#fff"/>
      <stop offset="1" stop-color="#d1d1d1"/>
    </linearGradient>
  </defs>
  <g id="Group_3891" data-name="Group 3891" transform="translate(-7374 2913)">
    <g id="Group_3886" data-name="Group 3886" transform="translate(-107 7)">
      <g id="Group_2456" data-name="Group 2456" transform="translate(7490.46 -2917.698)">
        <path id="Path_4119" data-name="Path 4119" d="M101.332,1011.267c-.345-.226-.813-.87-1.137-.95,1.629-.448,2.86-2.513,2.86-4.992,0-2.806-1.578-5.083-3.524-5.083s-3.525,2.275-3.525,5.082c0,2.506,1.258,4.586,2.913,5-.313.084-.811.728-1.144.949L99.868,1016Z" transform="translate(-89.249 -1000.242)" fill="#e5d8c8"/>
        <path id="Path_4120" data-name="Path 4120" d="M95.868,1049c0-.647-4.943-8.227-6.215-9.99a5.37,5.37,0,0,0-3.863-2.385l-1.464,4.734-2.093-4.724a14.709,14.709,0,0,0-3.361,2c-1.064.861-5.387,10.379-5.155,11.035s4.813,4.177,5.246,4.9c0,0,.49.981,1.937.416.414-.161.05-.626.05-.626l-4.325-4.944L79.1,1043.7c.454.436-.048,2.1.316,3.253a24.736,24.736,0,0,1,1.2,7.441c.659.386,7.979,1.03,7.979,1.03S95.871,1049.65,95.868,1049Zm-7.514,5.038c-.5-5.407,1.8-8.014.743-11.089l4.293,6.364Z" transform="translate(-73.706 -1025.603)" fill="#fcc062"/>
        <path id="Path_4121" data-name="Path 4121" d="M95.877,1002.36c-.05-1.154-1.959,3.147-4.925,3.87a7.7,7.7,0,0,0,1.476,3.325,2.578,2.578,0,0,1-3.746-.65c3.906.8.4-4.355,1.579-6.393,1-1.735,4.8-3.868,7.482-.152.889,1.233-.191,2.19.546,3.049C97.816,1005.545,96.545,1004.7,95.877,1002.36Z" transform="translate(-84.144 -1000.288)" fill="#42210b"/>
      </g>
      <g id="Group_2457" data-name="Group 2457" transform="translate(7481 -2894.265)">
        <path id="Path_4122" data-name="Path 4122" d="M143.3,1082.127l-30.3,5.988v32.3l30.3-12.752Z" transform="translate(-91.634 -1080.749)" fill="#f2f2f2"/>
        <path id="Path_4123" data-name="Path 4123" d="M143.907,1082.765l-30.907,6.4v-1.331l30.907-6.112Z" transform="translate(-91.634 -1080.464)" fill="#cfc3b7"/>
        <path id="Path_4124" data-name="Path 4124" d="M90.7,1097.484l-9.7-1.915v30.16l9.7,4.079Z" transform="translate(-69.33 -1090.118)" fill="#c3c6c8"/>
        <path id="Path_4125" data-name="Path 4125" d="M79,1096.494l10.3,2.1v-1.319L79,1095.268Z" transform="translate(-67.936 -1089.907)" fill="#866a4a"/>
        <path id="Path_4126" data-name="Path 4126" d="M120.209,1078.833l-9.847-1.255L79,1082.938l10.163,2Z" transform="translate(-67.936 -1077.578)" fill="#c69c6d"/>
        <path id="Path_4127" data-name="Path 4127" d="M52.073,1204.1l-9.586-4.717,11.67-4.28,9.7,4.058Z" transform="translate(-42.486 -1159.492)" fill="url(#linear-gradient)"/>
      </g>
      <g id="Group_2458" data-name="Group 2458" transform="translate(7513.577 -2906.811)">
        <path id="Path_4128" data-name="Path 4128" d="M166.059,1036.173,150,1037.624V1050.6l16.059-2.744Z" transform="translate(-150 -1036.173)" fill="#e3e3e3"/>
        <path id="Path_4129" data-name="Path 4129" d="M172.344,1084.031l-3.176-.516-4.423.818,3.433.474Z" transform="translate(-160.277 -1069.17)" fill="#c3c6c8"/>
        <path id="Path_4130" data-name="Path 4130" d="M172.792,1070.469l4.142-.775c.548-1.4-.408-6.227-1.684-6.749l-3.885.609C172.322,1064.292,173.567,1068.54,172.792,1070.469Z" transform="translate(-164.891 -1054.833)" fill="url(#linear-gradient-2)"/>
      </g>
      <g id="Group_2459" data-name="Group 2459" transform="translate(7566.604 -2920)">
        <path id="Path_4131" data-name="Path 4131" d="M368,992.646l20.654,11.924L368,1016.495Z" transform="translate(-354.971 -992.646)" fill="#e37474" opacity="0.7"/>
        <rect id="Rectangle_782" data-name="Rectangle 782" width="4.545" height="13.029" transform="translate(6.363 5.562)" fill="#e37474" opacity="0.7"/>
        <rect id="Rectangle_783" data-name="Rectangle 783" width="4.242" height="13.029" transform="translate(0 5.562)" fill="#e37474" opacity="0.7"/>
        <path id="Path_4132" data-name="Path 4132" d="M368,1004.685V992.81l20.7,11.875Z" transform="translate(-354.971 -992.76)" fill="#e37474" opacity="0.7"/>
        <rect id="Rectangle_784" data-name="Rectangle 784" width="4.545" height="6.666" transform="translate(6.363 11.925)" fill="#e37474" opacity="0.7"/>
        <rect id="Rectangle_785" data-name="Rectangle 785" width="4.242" height="6.666" transform="translate(0 11.925)" fill="#e37474" opacity="0.7"/>
      </g>
      <g id="Group_2460" data-name="Group 2460" transform="translate(7522.356 -2917.649)">
        <path id="Path_4133" data-name="Path 4133" d="M205.406,1174.635c.4,3.6-5.188,7.181-12.482,7.991s-13.531-1.455-13.931-5.059,5.188-7.181,12.482-7.99S205.006,1171.032,205.406,1174.635Z" transform="translate(-178.973 -1118.202)" opacity="0.2"/>
        <path id="Path_4134" data-name="Path 4134" d="M202.5,1178.374c-.083.714-.381,2.2.81,2.486s1.993-1.454,2.17-2.43a3.294,3.294,0,0,0-.414-2.782C204.014,1174.491,202.575,1177.7,202.5,1178.374Z" transform="translate(-195.303 -1122.374)" fill="#7c571d"/>
        <path id="Path_4135" data-name="Path 4135" d="M242.862,1180.024c-.449.561-1.614,1.809-.63,2.537,1.556,1.152,3.01-.387,3.677-1.121,1.019-1.122.943-1.982.573-2.37C245.227,1177.753,243.285,1179.495,242.862,1180.024Z" transform="translate(-222.796 -1124.597)" fill="#7c571d"/>
        <path id="Path_4136" data-name="Path 4136" d="M216.51,1044.98c-1.734-2.417-3.728-5.167-4.128-5.61a14.515,14.515,0,0,0-2.789-1.869c-1.043.8-2.086.372-3.129-.144a16.919,16.919,0,0,0-2.721,1.738c-.671.557-2.519,2.849-4.346,4.993l2.644,2.441a18.769,18.769,0,0,0,.418-2.188s.26,5.165.792,8.172c.95,1.589,4.126,2.008,5.5,1.856s4.744-3.445,4.725-4.769c-.012-.828-.249-3.623-.249-3.623a6.83,6.83,0,0,1,.511,1.271Z" transform="translate(-193.208 -1026.16)" fill="#b2ddfb"/>
        <path id="Path_4137" data-name="Path 4137" d="M219.707,1018.7c-.32-.176-.634-.34-.922-.479.985-.379,2.951-3.1,3.066-4.619s-2.385-3.179-3.521-3.219-4.362.62-4.415,1.767c-.112,2.375,1.354,5.173,3.3,6.077-.218.109-.43.219-.638.33C217.62,1019.068,218.664,1019.5,219.707,1018.7Z" transform="translate(-203.323 -1007.355)" fill="#d7c8af"/>
        <path id="Path_4138" data-name="Path 4138" d="M249.584,1064.4l-1.729,1.412c.516,1.864,3.34,9.374,2.691,10.46-.066-.351-1.183-.076-1.183.429,0,1.087.495,1.441,1.281,1.386C253.909,1077.866,251.585,1071.458,249.584,1064.4Z" transform="translate(-226.983 -1045.012)" fill="#d7c8af"/>
        <path id="Path_4139" data-name="Path 4139" d="M213.888,1012.145c.054-1.147,3.279-1.807,4.415-1.767s3.636,1.7,3.521,3.219a7.369,7.369,0,0,1-1.6,3.273c-.119.152-.238.3-.358.43a2.552,2.552,0,0,1-2.367.164c-1.628-.592-3.849-4.818-3.612-5.319" transform="translate(-203.296 -1007.355)" fill="#999"/>
        <path id="Path_4140" data-name="Path 4140" d="M214.907,1071.01s-1.9-8.762-1.655-9.813.942-7.081.942-7.081l.1-3.8-3.133-6.834.814-4.285-1.212-.761-.662,4.682h-2.2l-1.153-4.732-.967.593.477,4.534s-2.732,4.139-2.45,7.119c.437,4.624.345,10.9.345,10.9s-1.123,6.932-1.787,9.97-1.787,11.516-1.787,11.516a2.044,2.044,0,0,0,1.641,1.244c1.719.158,2.046.084,2.565-.434,0,0,1.85-18.632,3.991-17.682.793.352,2.063,3.814,2.879,7.611.923,4.3,1.021,10.12,1.171,10.469a2.784,2.784,0,0,0,2.539.2,2,2,0,0,0,1.267-1.334Z" transform="translate(-194.035 -1026.875)" fill="#3fa9f5"/>
        <path id="Path_4141" data-name="Path 4141" d="M195.669,1076.807c2.017,1.313,2.346-.884,1.588-1.288s-.007-10.955,1.556-12.6l-1.945-1.8C194.92,1064.75,194.535,1076.069,195.669,1076.807Z" transform="translate(-190.169 -1042.728)" fill="#d7c8af"/>
        <path id="Path_4142" data-name="Path 4142" d="M210.616,1007.238c1.918-1.237,7.294-1.767,9.629-.152-.73-1.321-.353-5.149-2.945-6.3a4.513,4.513,0,0,0-4.977.931C210.85,1003.174,211.212,1005.959,210.616,1007.238Z" transform="translate(-201.028 -1000.405)" fill="#fbb03b"/>
      </g>
    </g>
    <text id="Dispatch" transform="translate(7383 -2824)" fill="#0071bc" font-size="16" font-family="Arial-BoldMT, Arial" font-weight="700"><tspan x="0" y="0">Dispatch</tspan></text>
  </g>
</svg>
