<svg xmlns="http://www.w3.org/2000/svg" width="120.576" height="88" viewBox="0 0 120.576 88">
  <g id="Group_3895" data-name="Group 3895" transform="translate(-7901 2910)">
    <g id="Group_3402" data-name="Group 3402" transform="translate(7988.105 -2910)">
      <path id="Path_5054" data-name="Path 5054" d="M371,591.646l20.5,11.835L371,615.315Z" transform="translate(-358.069 -591.646)" fill="#e37474" opacity="0.7"/>
      <rect id="Rectangle_903" data-name="Rectangle 903" width="4.511" height="12.931" transform="translate(6.315 5.52)" fill="#e37474" opacity="0.7"/>
      <rect id="Rectangle_904" data-name="Rectangle 904" width="4.21" height="12.931" transform="translate(0 5.52)" fill="#e37474" opacity="0.7"/>
      <path id="Path_5055" data-name="Path 5055" d="M371,603.6V591.81L391.54,603.6Z" transform="translate(-358.069 -591.761)" fill="#e37474" opacity="0.7"/>
      <rect id="Rectangle_905" data-name="Rectangle 905" width="4.511" height="6.616" transform="translate(6.315 11.835)" fill="#e37474" opacity="0.7"/>
      <rect id="Rectangle_906" data-name="Rectangle 906" width="4.21" height="6.616" transform="translate(0 11.835)" fill="#e37474" opacity="0.7"/>
    </g>
    <g id="Group_3404" data-name="Group 3404" transform="translate(7928.658 -2909.819)">
      <path id="Path_5056" data-name="Path 5056" d="M140.834,614.467,127,608.907V592.248l13.834,5.56Z" transform="translate(-127 -592.248)" fill="#662d91" opacity="0.5"/>
      <g id="Group_3403" data-name="Group 3403" transform="translate(2.707 3.379)" opacity="0.5">
        <path id="Path_5057" data-name="Path 5057" d="M144.232,606.617l-7.584-3.1c-.426-.171-.647.261-.647.794v6.7a1.3,1.3,0,0,0,.689,1.225l1.416.586v2.945l2.318-1.982,3.84,1.546c.426.172.758-.1.758-.633V608A1.646,1.646,0,0,0,144.232,606.617Zm-6.145,2.446a1.447,1.447,0,0,1-.77-1.277c0-.534.345-.826.77-.654a1.448,1.448,0,0,1,.77,1.277C138.857,608.942,138.512,609.235,138.087,609.063Zm2.263.915a1.447,1.447,0,0,1-.77-1.277c0-.533.345-.826.77-.654a1.446,1.446,0,0,1,.77,1.277C141.12,609.857,140.775,610.15,140.35,609.978Zm2.311.934a1.447,1.447,0,0,1-.77-1.277c0-.534.345-.827.77-.654a1.445,1.445,0,0,1,.77,1.277C143.431,610.791,143.086,611.084,142.661,610.912Z" transform="translate(-136 -603.483)" fill="#fff"/>
      </g>
    </g>
    <g id="Group_3406" data-name="Group 3406" transform="translate(7937.079 -2887.981)">
      <path id="Path_5058" data-name="Path 5058" d="M168.834,687.082,155,681.523V664.863l13.834,5.56Z" transform="translate(-155 -664.863)" fill="#009245" opacity="0.5"/>
      <g id="Group_3405" data-name="Group 3405" transform="translate(2.406 3.379)" opacity="0.5">
        <path id="Path_5059" data-name="Path 5059" d="M171.548,679.233l-7.742-3.1c-.426-.172-.806.261-.806.794v6.7a1.446,1.446,0,0,0,.86,1.225l1.57.586.959,4.161,1.367-3.2,3.824,1.546c.426.172.742-.1.742-.633v-6.7A1.632,1.632,0,0,0,171.548,679.233Zm-6.129,2.445a1.447,1.447,0,0,1-.77-1.277c0-.534.345-.826.77-.654a1.447,1.447,0,0,1,.77,1.277C166.19,681.557,165.845,681.851,165.419,681.678Zm2.263.915a1.447,1.447,0,0,1-.77-1.277c0-.533.345-.826.77-.654a1.447,1.447,0,0,1,.77,1.277C168.452,682.472,168.107,682.765,167.682,682.593Zm2.311.934a1.447,1.447,0,0,1-.77-1.277c0-.534.345-.826.77-.654a1.447,1.447,0,0,1,.77,1.277C170.763,683.406,170.418,683.7,169.993,683.527Z" transform="translate(-163 -676.099)" fill="#fff"/>
      </g>
    </g>
    <g id="Group_3408" data-name="Group 3408" transform="translate(7947.003 -2906.025)">
      <path id="Path_5060" data-name="Path 5060" d="M201.834,627.082,188,621.523V604.863l13.834,5.56Z" transform="translate(-188 -604.863)" fill="#747812" opacity="0.5"/>
      <g id="Group_3407" data-name="Group 3407" transform="translate(2.406 3.379)" opacity="0.5">
        <path id="Path_5061" data-name="Path 5061" d="M204.548,619.233l-7.742-3.1c-.426-.172-.806.261-.806.794v6.7a1.446,1.446,0,0,0,.86,1.225l1.57.586,3.131,4.138-.8-3.174,3.824,1.546c.426.172.742-.1.742-.633v-6.7A1.632,1.632,0,0,0,204.548,619.233Zm-6.129,2.445a1.447,1.447,0,0,1-.77-1.277c0-.534.345-.826.77-.654a1.447,1.447,0,0,1,.77,1.277C199.19,621.557,198.845,621.851,198.419,621.678Zm2.263.915a1.447,1.447,0,0,1-.77-1.277c0-.533.345-.826.77-.654a1.446,1.446,0,0,1,.77,1.277C201.452,622.472,201.107,622.765,200.682,622.593Zm2.311.934a1.447,1.447,0,0,1-.77-1.277c0-.534.345-.826.77-.654a1.446,1.446,0,0,1,.77,1.277C203.763,623.406,203.418,623.7,202.993,623.527Z" transform="translate(-196 -616.099)" fill="#fff"/>
      </g>
    </g>
    <g id="Group_3409" data-name="Group 3409" transform="translate(7910 -2905.61)">
      <path id="Path_5062" data-name="Path 5062" d="M86.073,773.958c.4,3.576-4,7-9.826,7.646s-10.867-1.729-11.264-5.3,4-7,9.826-7.646S85.676,770.382,86.073,773.958Z" transform="translate(-64.957 -719.737)" opacity="0.2"/>
      <path id="Path_5063" data-name="Path 5063" d="M87.895,784.288c-.136-1.593-.9-2.828-1.706-2.76s-1.35,1.416-1.214,3.009.9,2.828,1.706,2.759S88.03,785.881,87.895,784.288Z" transform="translate(-78.94 -728.813)" fill="#33302c"/>
      <path id="Path_5064" data-name="Path 5064" d="M107.535,784.3c-.1-1.6-.743-2.855-1.447-2.813s-1.2,1.37-1.1,2.966.744,2.855,1.447,2.812S107.63,785.891,107.535,784.3Z" transform="translate(-92.94 -728.782)" fill="#33302c"/>
      <path id="Path_5065" data-name="Path 5065" d="M90.292,617.184c-.342-.225-.807-.863-1.128-.943C90.78,615.8,92,613.748,92,611.287c0-2.785-1.566-5.045-3.5-5.045s-3.5,2.258-3.5,5.044c0,2.487,1.248,4.552,2.891,4.966-.311.083-.8.722-1.135.942l2.077,4.689Z" transform="translate(-78.977 -606.242)" fill="#e5d8c8"/>
      <path id="Path_5066" data-name="Path 5066" d="M82.26,645a5.33,5.33,0,0,0-3.834-2.367l-1.453,4.7L74.9,642.637a14.594,14.594,0,0,0-3.336,1.982c-1.056.854-3.738,10.451-3.509,11.1.158.447,2.506,2.166,4.1,3.431l.544-1.972-2.325-2.411,1.415-5.12c.451.433-.048,2.083.314,3.229a16.92,16.92,0,0,1,.987,4.161c1.832.939,6.869.788,7.871-.014-.25-3.359,1.723-5.307.752-8.12l2.155,5.864-2.632,3.061.45,1.42c2.089-1.636,4.643-3.615,4.641-3.989C86.32,654.619,83.523,646.745,82.26,645Z" transform="translate(-67.111 -631.686)" fill="#fcc062"/>
      <path id="Path_5067" data-name="Path 5067" d="M84.823,608.344c-.049-1.145-1.944,3.123-4.888,3.841a7.644,7.644,0,0,0,1.465,3.3,2.558,2.558,0,0,1-3.718-.645c3.876.795.4-4.323,1.567-6.345,1-1.722,4.764-3.839,7.425-.151.883,1.223-.189,2.173.542,3.026C86.747,611.505,85.486,610.664,84.823,608.344Z" transform="translate(-73.855 -606.288)" fill="#42210b"/>
      <path id="Path_5068" data-name="Path 5068" d="M86.262,741.45a41.258,41.258,0,0,1-.368-10.756c.45-5.317.331-9.693.331-9.693h7a89.973,89.973,0,0,0,.324,10.676,49.252,49.252,0,0,1,0,9.774c-.226,2.18-1.353,1.792-1.579,0-.129-1.024-.581-7.774-1.225-10.892-.241-1.168-.224-7.984-1-8.054s-1.15,3.466-1.373,8.2c-.244,5.159-.3,9.985-.465,10.75C87.54,743.179,86.788,742.953,86.262,741.45Z" transform="translate(-79.483 -686.489)" fill="#e5d8c8"/>
      <path id="Path_5069" data-name="Path 5069" d="M80.6,690.5c1.005.585,7.485.455,7.9,0,.1.983,1.9,11.038,1.494,13.2-.218,1.177-10.733,1.541-11.146-.207C78.573,702.33,80.812,691.344,80.6,690.5Z" transform="translate(-74.654 -665.162)" fill="#754c24"/>
      <path id="Path_5070" data-name="Path 5070" d="M83.144,694.273l1.174-1.119-2.059-2.135-.544,1.972A8.609,8.609,0,0,1,83.144,694.273Z" transform="translate(-76.675 -665.523)" fill="#fcc062"/>
      <path id="Path_5071" data-name="Path 5071" d="M105.945,694.719l.7,1.1c.44-.356.976-.777,1.546-1.224l-.45-1.42Z" transform="translate(-93.619 -667.034)" fill="#fcc062"/>
      <path id="Path_5072" data-name="Path 5072" d="M98.314,699.836c-.488.634.937.668,1.412.526a5.374,5.374,0,0,0,1.511-.957l-.7-1.1A9.545,9.545,0,0,0,98.314,699.836Z" transform="translate(-88.213 -670.617)" fill="#e5d8c8"/>
      <path id="Path_5073" data-name="Path 5073" d="M90.01,700.037c.393-.2-1.353-1.3-1.353-1.3l-1.016-.615-1.174,1.119S88.582,700.764,90.01,700.037Z" transform="translate(-79.998 -670.489)" fill="#e5d8c8"/>
      <circle id="Ellipse_458" data-name="Ellipse 458" cx="0.414" cy="0.414" r="0.414" transform="translate(9.784 18.723)" fill="#754c24"/>
      <circle id="Ellipse_459" data-name="Ellipse 459" cx="0.451" cy="0.451" r="0.451" transform="translate(9.784 22.181)" fill="#754c24"/>
    </g>
    <text id="Feedback" transform="translate(7901 -2825)" fill="#0071bc" font-size="16" font-family="Arial-BoldMT, Arial" font-weight="700"><tspan x="0" y="0">Feedback</tspan></text>
  </g>
</svg>
