<svg xmlns="http://www.w3.org/2000/svg" width="110.992" height="88" viewBox="0 0 110.992 88">
  <g id="Group_3892" data-name="Group 3892" transform="translate(-7515 2910)">
    <g id="Group_3887" data-name="Group 3887" transform="translate(-122 2)">
      <g id="Group_2638" data-name="Group 2638" transform="translate(7668.513 -2911.505)">
        <ellipse id="Ellipse_450" data-name="Ellipse 450" cx="13.938" cy="6.416" rx="13.938" ry="6.416" transform="translate(0 51.538)" opacity="0.2"/>
        <path id="Path_4295" data-name="Path 4295" d="M194.653,381.526c-.608.383-1.951,1.084-1.427,2.191s2.383.638,3.253.164c1.331-.725,1.823-1.54,1.906-2.069C198.628,380.269,195.227,381.164,194.653,381.526Z" transform="translate(-187.318 -323.983)" fill="#7c571d"/>
        <path id="Path_4296" data-name="Path 4296" d="M234.862,380.807c-.449.561-1.614,1.809-.63,2.537,1.556,1.152,3.01-.387,3.677-1.121a2.16,2.16,0,0,0,.573-2.37C238.2,378.318,235.285,380.278,234.862,380.807Z" transform="translate(-215.713 -322.826)" fill="#7c571d"/>
        <path id="Path_4297" data-name="Path 4297" d="M194.7,273.337c.227,1.974,3.532,1.8,1.214-.5-.355-.354.085-1.9.578-3.939a87.237,87.237,0,0,0,1.883-9.148l-2.293-.318C195.7,262.107,194.345,270.257,194.7,273.337Z" transform="translate(-188.386 -239.292)" fill="#d7c8af"/>
        <path id="Path_4298" data-name="Path 4298" d="M214.575,239.662c-1.734-2.417-3.571-4.848-3.972-5.292a14.513,14.513,0,0,0-2.789-1.869c-1.043.8-2.086.372-3.129-.144a16.918,16.918,0,0,0-2.721,1.738,20.844,20.844,0,0,0-4.249,7.21l2.625,1.047a10.571,10.571,0,0,1,1.047-2.69,37.855,37.855,0,0,0,.085,7.851c.95,1.589,4.126,2.008,5.5,1.856s4.744-3.445,4.725-4.769c-.012-.828-.249-3.623-.249-3.623a4.348,4.348,0,0,1,1.107.817Z" transform="translate(-190.528 -220.424)" fill="#b2ddfb"/>
        <path id="Path_4299" data-name="Path 4299" d="M217.707,213.7c-.32-.176-.634-.34-.922-.479.985-.379,2.951-3.1,3.066-4.619s-2.385-3.179-3.521-3.219-4.362.62-4.415,1.767c-.112,2.375,1.354,5.173,3.3,6.077-.218.109-.43.219-.638.33C215.62,214.068,216.664,214.5,217.707,213.7Z" transform="translate(-200.422 -201.619)" fill="#d7c8af"/>
        <path id="Path_4300" data-name="Path 4300" d="M212.021,267.081s-1.494-6.7-1.249-7.747,1.422-10.218,1.422-10.218l.1-3.8-3.133-6.834.814-4.285-1.212-.761-.662,4.681h-2.2l-1.153-4.732-.967.593.477,4.534s-2.45,7.119-2.169,10.1a42.384,42.384,0,0,1,.063,7.921s-1.123,6.932-1.787,9.97-1.787,11.516-1.787,11.516a2.043,2.043,0,0,0,1.641,1.244c1.719.158,2.046.084,2.565-.434,0,0,2.51-18.061,3.509-17.432.734.463,1.216,4.209,2.031,8.006a85.752,85.752,0,0,0,2.348,9.014c.455.734,1.061.985,2.273,1.212a1.835,1.835,0,0,0,1.845-.858Z" transform="translate(-191.134 -221.138)" fill="#3fa9f5"/>
        <path id="Path_4301" data-name="Path 4301" d="M217.53,255.888c.682-.682,3.257-.606,3.939,0a32.017,32.017,0,0,1,.455,4.269c-.3.92-4.563.7-4.942.068S217.53,255.888,217.53,255.888Z" transform="translate(-203.895 -236.488)" fill="#2f7db5"/>
        <path id="Path_4302" data-name="Path 4302" d="M236.641,256.464l-2.025,2.132c1.324,1.22,3.112,3.46,2.485,3.836-.669.961-5.118,5.658-6.1,5.885-.066-.351-1.049-.587-1.376-.167-.668.858.1,1.821,1.193,1.96,1.342.171,8.8-6.519,8.8-8.08A20.645,20.645,0,0,0,236.641,256.464Z" transform="translate(-212.594 -237.226)" fill="#d7c8af"/>
        <path id="Path_4303" data-name="Path 4303" d="M209,198.74c2.125-.833,7.5-.291,9.469,1.754-.455-1.439.369-5.617-1.641-6.762a4.82,4.82,0,0,0-5.063-.071C210.033,194.8,209.837,197.6,209,198.74Z" transform="translate(-198.395 -192.975)" fill="#fbb03b"/>
        <g id="Group_2637" data-name="Group 2637" transform="translate(16.568 28.383)">
          <path id="Path_4304" data-name="Path 4304" d="M228.677,286.773a5.388,5.388,0,0,1,2.007-.052l-.092,3.063-1.6.109Z" transform="translate(-228.677 -286.645)" fill="#393632"/>
          <path id="Path_4305" data-name="Path 4305" d="M230.331,288.8c0,.078-.1.142-.217.142s-.217-.064-.217-.142.1-.142.217-.142S230.331,288.724,230.331,288.8Z" transform="translate(-229.528 -288.05)" fill="#615e5b"/>
        </g>
      </g>
      <path id="Path_4306" data-name="Path 4306" d="M115.453,227.127,90,216.5V191.343l25.453,10.625Z" transform="translate(7553.06 -3103.343)" fill="#33c4ba" opacity="0.8"/>
      <g id="Group_2639" data-name="Group 2639" transform="translate(7714.267 -2911.605)">
        <path id="Path_4307" data-name="Path 4307" d="M368,192.646l20.654,11.924L368,216.495Z" transform="translate(-354.971 -192.646)" fill="#e37474" opacity="0.7"/>
        <rect id="Rectangle_796" data-name="Rectangle 796" width="4.545" height="13.029" transform="translate(6.363 5.562)" fill="#e37474" opacity="0.7"/>
        <rect id="Rectangle_797" data-name="Rectangle 797" width="4.242" height="13.029" transform="translate(0 5.562)" fill="#e37474" opacity="0.7"/>
        <path id="Path_4308" data-name="Path 4308" d="M368,204.685V192.811l20.7,11.875Z" transform="translate(-354.971 -192.76)" fill="#e37474" opacity="0.7"/>
        <rect id="Rectangle_798" data-name="Rectangle 798" width="4.545" height="6.666" transform="translate(6.363 11.925)" fill="#e37474" opacity="0.7"/>
        <rect id="Rectangle_799" data-name="Rectangle 799" width="4.242" height="6.666" transform="translate(0 11.925)" fill="#e37474" opacity="0.7"/>
      </g>
      <g id="Group_2640" data-name="Group 2640" transform="translate(7649.727 -2904.222)" opacity="0.7">
        <path id="Path_4309" data-name="Path 4309" d="M112,217.012v15.95l11.817,5.063V221.877Zm9.09,15.98-6.06-2.375s-.368-3.076,2.168-4.236a5.566,5.566,0,0,1-2.13-5.016l5.837,2.613s-.47,2.538-2.286,2.8A7.844,7.844,0,0,1,121.09,232.992Z" transform="translate(-112 -217.012)" fill="#fff"/>
        <path id="Path_4310" data-name="Path 4310" d="M126.611,250.81c-1.183-.424-2.018,1.45-2.018,2.5l4.288,1.654C128.881,253.971,127.844,251.252,126.611,250.81Z" transform="translate(-120.777 -240.526)" fill="#fff"/>
      </g>
      <g id="Group_2642" data-name="Group 2642" transform="translate(7637 -2887.759)">
        <path id="Path_4311" data-name="Path 4311" d="M83.635,292.169,70,286.451V271.343l13.635,5.718Z" transform="translate(-70 -271.343)" fill="#33c4ba" opacity="0.8"/>
        <g id="Group_2641" data-name="Group 2641" transform="translate(3.636 4.186)" opacity="0.7">
          <path id="Path_4312" data-name="Path 4312" d="M96.23,316.837a5.007,5.007,0,0,1,.009,1.846,2.521,2.521,0,0,0,1.842-1.343A2.847,2.847,0,0,1,96.23,316.837Z" transform="translate(-91.918 -307.237)" fill="#fff"/>
          <path id="Path_4313" data-name="Path 4313" d="M82,285.156v9.951l3.836,1.593c.307-.158.322-1.3.163-2.485a2.2,2.2,0,0,0,2.364.566v-7.007Zm4.848,8.573-3.333-1.456v-.584l3.333,1.455Zm0-1-3.333-1.455v-.584l3.333,1.455Zm0-1.078L83.515,290.2v-.584l3.333,1.455Zm0-1.077-3.333-1.455v-.585l3.333,1.455Zm0-1-3.333-1.456v-.584L86.848,289Z" transform="translate(-82 -285.156)" fill="#fff"/>
        </g>
      </g>
    </g>
    <text id="Receive" transform="translate(7525 -2825)" fill="#0071bc" font-size="16" font-family="Arial-BoldMT, Arial" font-weight="700"><tspan x="0" y="0">Receive</tspan></text>
  </g>
</svg>
