<svg xmlns="http://www.w3.org/2000/svg" width="116" height="88" viewBox="0 0 116 88">
  <g id="Group_3896" data-name="Group 3896" transform="translate(-8055 2910)">
    <g id="Group_3570" data-name="Group 3570" transform="translate(8055 -2910)">
      <path id="Path_5249" data-name="Path 5249" d="M474.613,772.559c1.007,3.536-2.823,7.724-8.555,9.357s-11.2.091-12.2-3.443,2.824-7.725,8.556-9.358S473.606,769.024,474.613,772.559Z" transform="translate(-453.694 -713.674)" opacity="0.2"/>
      <path id="Path_5250" data-name="Path 5250" d="M463.892,782.472c-.191.713-1.929,3.191.425,3.554,2.2.339,3.058-2.134,3.383-3.1a2.879,2.879,0,0,0-.8-2.844C466.012,778.753,464.072,781.8,463.892,782.472Z" transform="translate(-460.17 -721.449)" fill="#7c571d"/>
      <path id="Path_5251" data-name="Path 5251" d="M498.728,779.474c-.142.849-.565,3.06,1.55,3.06,2.49,0,2.569-3.255,2.664-4.269a2.144,2.144,0,0,0-1.636-2.344C499.463,775.614,498.843,778.788,498.728,779.474Z" transform="translate(-484.623 -718.798)" fill="#7c571d"/>
      <path id="Path_5252" data-name="Path 5252" d="M475.972,637.186c-1.781-2.482-3.828-5.307-4.24-5.762a14.907,14.907,0,0,0-2.865-1.919c-1.071.825-2.143.382-3.214-.148a17.372,17.372,0,0,0-2.794,1.785c-.689.572-2.587,2.926-4.463,5.128l2.715,2.507a19.277,19.277,0,0,0,.429-2.247s.267,5.3.814,8.393c.976,1.632,4.238,2.063,5.644,1.906s4.872-3.538,4.852-4.9c-.013-.851-.256-3.721-.256-3.721a7.034,7.034,0,0,1,.525,1.306Z" transform="translate(-456.933 -617.858)" fill="#b2ddfb"/>
      <path id="Path_5253" data-name="Path 5253" d="M478.863,610.921c-.329-.181-.651-.349-.947-.492,1.011-.389,3.031-3.186,3.149-4.744s-2.449-3.265-3.616-3.306-4.48.637-4.535,1.815c-.115,2.44,1.39,5.313,3.391,6.241-.224.112-.442.225-.655.339C476.721,611.3,477.792,611.746,478.863,610.921Z" transform="translate(-466.929 -599.273)" fill="#d7c8af"/>
      <path id="Path_5254" data-name="Path 5254" d="M508.63,656.4l-1.775,1.451c.53,1.914,3.431,9.627,2.764,10.743-.068-.361-1.214-.078-1.214.44,0,1.117.508,1.479,1.315,1.424C513.072,670.23,510.686,663.649,508.63,656.4Z" transform="translate(-490.311 -636.488)" fill="#d7c8af"/>
      <path id="Path_5255" data-name="Path 5255" d="M478.427,665.588s-1.951-10.694-1.7-11.773.967-7.273.967-7.273l.106-3.905-3.218-7.019.836-4.4-1.245-.782-.68,4.808h-2.256l-1.184-4.86-.993.609.49,4.657s-2.806,4.251-2.517,7.312c.449,4.749.354,11.2.354,11.2s-1.007,7.675-1.213,10.862c-.229,3.548-.591,12.45-.591,12.45a2.1,2.1,0,0,0,1.686,1.277c1.765.162,2.1.086,2.635-.446.166-.5,1.057-17.895,2.231-19.405.547-.7,1.3,4.036,2.136,7.935.948,4.415,1.869,10.275,2.023,10.633a2.86,2.86,0,0,0,2.608.21,2.051,2.051,0,0,0,1.3-1.37Z" transform="translate(-461.883 -618.564)" fill="#3fa9f5"/>
      <path id="Path_5256" data-name="Path 5256" d="M478.547,651.9c.7-.7,3.345-.622,4.046,0a32.88,32.88,0,0,1,.467,4.384c-.311.945-4.686.72-5.075.07S478.547,651.9,478.547,651.9Z" transform="translate(-470.361 -633.044)" fill="#2f7db5"/>
      <path id="Path_5257" data-name="Path 5257" d="M454.686,669.231c2.071,1.349,2.41-.908,1.631-1.323s-.007-11.251,1.6-12.937l-2-1.844C453.917,656.848,453.522,668.473,454.686,669.231Z" transform="translate(-453.93 -634.23)" fill="#d7c8af"/>
      <path id="Path_5258" data-name="Path 5258" d="M469.616,599.423c1.97-1.27,7.491-1.815,9.889-.156-.75-1.357-.363-5.288-3.024-6.474a4.634,4.634,0,0,0-5.111.956C469.857,595.249,470.228,598.109,469.616,599.423Z" transform="translate(-464.661 -592.405)" fill="#fbb03b"/>
    </g>
    <g id="Group_3888" data-name="Group 3888" transform="translate(6 -3)">
      <path id="Path_5248" data-name="Path 5248" d="M558.4,777.217,545.97,772.2l-25.376,10.364,12.9,5.315Z" transform="translate(7551.225 -3625.245)" fill="#84807a" opacity="0.7"/>
      <g id="Group_3571" data-name="Group 3571" transform="translate(8070.701 -2876.541)">
        <path id="Path_5259" data-name="Path 5259" d="M558.49,773l-1.245.622L556,773v14.938a2.2,2.2,0,0,0,1.245.622,1.73,1.73,0,0,0,1.245-.622Z" transform="translate(-543.863 -749.258)" fill="#666059"/>
        <path id="Path_5260" data-name="Path 5260" d="M636.49,740l-1.245.622L634,740v14.938a2.264,2.264,0,0,0,1.245.622,1.921,1.921,0,0,0,1.245-.622Z" transform="translate(-597.59 -726.528)" fill="#666059"/>
        <path id="Path_5261" data-name="Path 5261" d="M601.49,725l-1.245.622L599,725v14.938a2.265,2.265,0,0,0,1.245.622,1.921,1.921,0,0,0,1.245-.622Z" transform="translate(-573.482 -716.196)" fill="#666059"/>
        <path id="Path_5262" data-name="Path 5262" d="M523.49,759l-1.245.622L521,759v14.938a2.671,2.671,0,0,0,1.245.622,2.36,2.36,0,0,0,1.245-.622Z" transform="translate(-519.755 -739.615)" fill="#666059"/>
        <path id="Path_5263" data-name="Path 5263" d="M519,732.481l13.07,5.423v8.248L519,740.708Z" transform="translate(-518.378 -721.348)" fill="#878c91"/>
        <path id="Path_5264" data-name="Path 5264" d="M587.141,714.151,561,725.327v8.19l26.141-10.673Z" transform="translate(-547.307 -708.723)" fill="#c3c6c8"/>
        <path id="Path_5265" data-name="Path 5265" d="M557.044,702.073l-13.281-5.365L517,707.639l13.775,5.674Z" transform="translate(-517 -696.708)" fill="#f2f2f2"/>
        <path id="Path_5266" data-name="Path 5266" d="M587.452,714.791,561,726.1v-.917l26.452-11.239Z" transform="translate(-547.307 -708.584)" fill="#aeaeaf"/>
        <path id="Path_5267" data-name="Path 5267" d="M517,731.832l13.693,5.705v.885L517,732.612Z" transform="translate(-517 -720.901)" fill="#717376"/>
      </g>
      <g id="Group_3572" data-name="Group 3572" transform="translate(8083.561 -2871.843)">
        <path id="Path_5268" data-name="Path 5268" d="M564.927,711.8l-6.6,2.9,9.457,3.887,6.353-2.651Z" transform="translate(-558.324 -711.805)" fill="#c9c4bd"/>
        <path id="Path_5269" data-name="Path 5269" d="M593.431,721.411c-.471.092-.78.4-.688.689s.547.449,1.018.358.78-.4.689-.689S593.9,721.32,593.431,721.411Zm.777.228-.443.043-.256-.2A.9.9,0,0,1,594.208,721.64Zm-.813-.131-.116.266-.4.113A.7.7,0,0,1,593.395,721.509Zm-.516.565a.288.288,0,0,1-.013-.109l.349.121.006.269A.479.479,0,0,1,592.878,722.074Zm.442.305.339-.192.426.053a1.022,1.022,0,0,1-.352.135A1.133,1.133,0,0,1,593.321,722.379Zm.834-.189-.155-.252.257-.246a.327.327,0,0,1,.057.1A.371.371,0,0,1,594.154,722.19Z" transform="translate(-582.02 -718.404)" fill="#f14224"/>
      </g>
      <g id="Group_3573" data-name="Group 3573" transform="translate(8089.408 -2884.613)">
        <path id="Path_5270" data-name="Path 5270" d="M600.314,810.763c1.338-.03,10.617,3.05,9.728,3.731s-8.934,4.382-10.069,4.357-10.213-3.282-9.721-4.047S598.977,810.792,600.314,810.763Z" transform="translate(-586.151 -767.197)" fill="#84807a" opacity="0.7"/>
        <path id="Path_5271" data-name="Path 5271" d="M598.968,815.565c-.389.939-.52.767-.673-.051a.867.867,0,0,0-.879.172c-.63.478-2.1-1.208-2.667-1.793.394-.456,1.332.209,2.553.061C599.543,813.683,599.476,814.34,598.968,815.565Z" transform="translate(-589.262 -769.242)" fill="#484643"/>
        <path id="Path_5272" data-name="Path 5272" d="M609.968,813.565c-.389.939-.52.767-.673-.051a.867.867,0,0,0-.879.172c-.63.478-2.1-1.208-2.667-1.793.394-.456,1.332.209,2.553.061C610.543,811.683,610.476,812.34,609.968,813.565Z" transform="translate(-596.839 -767.865)" fill="#484643"/>
        <path id="Path_5273" data-name="Path 5273" d="M609.129,765.449c0,5.082.648,8.523-.654,8.508-.944-.011-3.092-.787-.467-.964-.637-1.952-.887-5.828-2.341-9.785-1.752-4.77-.829-9.69,1.712-7.347C608.2,756.619,609.129,760.367,609.129,765.449Z" transform="translate(-596.161 -728.966)" fill="#e3dfda"/>
        <path id="Path_5274" data-name="Path 5274" d="M598.129,767.449c0,5.082.648,8.523-.654,8.508-.944-.011-2.989-.512-.467-.963-.637-1.952-.887-5.828-2.341-9.785-1.752-4.77-.829-9.69,1.712-7.347C597.2,758.619,598.129,762.367,598.129,767.449Z" transform="translate(-588.584 -730.344)" fill="#e3dfda"/>
        <path id="Path_5275" data-name="Path 5275" d="M619.49,787l-1.245.622L617,787v14.938a2.2,2.2,0,0,0,1.245.622,1.73,1.73,0,0,0,1.245-.622Z" transform="translate(-604.588 -750.83)" fill="#666059"/>
        <path id="Path_5276" data-name="Path 5276" d="M648.49,775l-1.245.622L646,775v14.938a2.264,2.264,0,0,0,1.245.622,1.921,1.921,0,0,0,1.245-.622Z" transform="translate(-624.563 -742.564)" fill="#666059"/>
        <path id="Path_5277" data-name="Path 5277" d="M592.49,776l-1.245.622L590,776v14.938a2.671,2.671,0,0,0,1.245.622,2.36,2.36,0,0,0,1.245-.622Z" transform="translate(-585.99 -743.253)" fill="#666059"/>
        <path id="Path_5278" data-name="Path 5278" d="M599.2,762.1c1.406-.031,10.379,3.707,9.445,4.423s-8.61,4.1-9.8,4.077-10.733-3.449-10.216-4.253S597.8,762.132,599.2,762.1Z" transform="translate(-585.031 -733.679)" fill="#84807a"/>
        <path id="Path_5279" data-name="Path 5279" d="M579.137,717.958a1.067,1.067,0,1,1-1.534-.681A1.2,1.2,0,0,1,579.137,717.958Z" transform="translate(-577.115 -702.737)" fill="#e5d8c8"/>
        <path id="Path_5280" data-name="Path 5280" d="M597.267,708.194c-1.149-1.893-6.38-.882-7.884.467-1.244,1.115-5.311,6.328-5.311,6.328l-2.864-3.035-1.516.892s2.615,4.51,3.992,4.592c1.214.072,5.825-4.219,6.074-4.893-.219,3.216.262,2.463,1.38,5.559.58,1.605-1.78,5.5,3.522,7.622.717.288,2.719.433,3.321-.682C599.432,722.354,599.557,711.966,597.267,708.194Z" transform="translate(-578.89 -695.83)" fill="#fcc062"/>
        <path id="Path_5281" data-name="Path 5281" d="M609.072,753.166c-.635,7.325-4.323,6.821-5.2,6.626-4.51-1.008-6.985-2.736-7.335-3.358-1.284-.039-1.609-3.6-.467-4.512a7.526,7.526,0,0,1,5.981-1.78C602.678,752.3,608.38,753.789,609.072,753.166Z" transform="translate(-589.692 -725.398)" fill="#754c24"/>
        <path id="Path_5282" data-name="Path 5282" d="M635.805,731.041l-9.368,3.862-2.693,14.162s3.142-1.213,5.008-2.012,4.1-1.923,4.1-1.923Z" transform="translate(-609.233 -712.285)" fill="#666059"/>
        <path id="Path_5283" data-name="Path 5283" d="M617.817,677.175a5.743,5.743,0,0,1-1.793,4.585l.8,1.146c.012.506-.8.638-1.579.812-.48.107-1.51,0-1.419-.5l.415-1.32a6.219,6.219,0,0,1-2.814-4.656c-.027-2.785,1.381-5.058,3.146-5.075S617.789,674.389,617.817,677.175Z" transform="translate(-600.748 -671.729)" fill="#e5d8c8"/>
        <path id="Path_5284" data-name="Path 5284" d="M608.333,675.354c.311-1.4.622-3.475,2.5-4.2,5.269-2.032,5.333,4.616,5.382,6.224s.713.856,1.467.311a4.043,4.043,0,0,1-2.947,3.432c-1.94.725-4.7-.217-5.058-1.358,2.255.518,2.515-.279,2.255-1.193C611.436,676.807,608.333,675.354,608.333,675.354Z" transform="translate(-598.618 -670.771)" fill="#754c24"/>
      </g>
    </g>
    <g id="Group_3574" data-name="Group 3574" transform="translate(8136.364 -2908.925)">
      <path id="Path_5285" data-name="Path 5285" d="M771,592.646l21.212,12.247L771,617.139Z" transform="translate(-757.618 -592.646)" fill="#e37474" opacity="0.7"/>
      <rect id="Rectangle_920" data-name="Rectangle 920" width="4.668" height="13.382" transform="translate(6.535 5.712)" fill="#e37474" opacity="0.7"/>
      <rect id="Rectangle_921" data-name="Rectangle 921" width="4.357" height="13.382" transform="translate(0 5.712)" fill="#e37474" opacity="0.7"/>
      <path id="Path_5286" data-name="Path 5286" d="M771,605.006v-12.2l21.255,12.2Z" transform="translate(-757.618 -592.759)" fill="#e37474" opacity="0.7"/>
      <rect id="Rectangle_922" data-name="Rectangle 922" width="4.668" height="6.846" transform="translate(6.535 12.247)" fill="#e37474" opacity="0.7"/>
      <rect id="Rectangle_923" data-name="Rectangle 923" width="4.357" height="6.846" transform="translate(0 12.247)" fill="#e37474" opacity="0.7"/>
    </g>
    <text id="Review" transform="translate(8062 -2825)" fill="#0071bc" font-size="16" font-family="Arial-BoldMT, Arial" font-weight="700"><tspan x="0" y="0">Review</tspan></text>
  </g>
</svg>
