<svg xmlns="http://www.w3.org/2000/svg" width="113.798" height="90" viewBox="0 0 113.798 90">
  <g id="Group_3899" data-name="Group 3899" transform="translate(-7649 2910)">
    <g id="Group_2834" data-name="Group 2834" transform="translate(7729.326 -2909.799)">
      <path id="Path_4496" data-name="Path 4496" d="M771,192.645l20.5,11.835L771,216.315Z" transform="translate(-758.069 -192.645)" fill="#e37474" opacity="0.7"/>
      <rect id="Rectangle_825" data-name="Rectangle 825" width="4.511" height="12.931" transform="translate(6.315 5.52)" fill="#e37474" opacity="0.7"/>
      <rect id="Rectangle_826" data-name="Rectangle 826" width="4.21" height="12.931" transform="translate(0 5.52)" fill="#e37474" opacity="0.7"/>
      <path id="Path_4497" data-name="Path 4497" d="M771,204.6V192.811L791.54,204.6Z" transform="translate(-758.069 -192.761)" fill="#e37474" opacity="0.7"/>
      <rect id="Rectangle_827" data-name="Rectangle 827" width="4.511" height="6.616" transform="translate(6.315 11.835)" fill="#e37474" opacity="0.7"/>
      <rect id="Rectangle_828" data-name="Rectangle 828" width="4.21" height="6.616" transform="translate(0 11.835)" fill="#e37474" opacity="0.7"/>
    </g>
    <g id="Group_2836" data-name="Group 2836" transform="translate(7672.355 -2910)">
      <ellipse id="Ellipse_451" data-name="Ellipse 451" cx="13.834" cy="6.368" rx="13.834" ry="6.368" transform="translate(5.847 52.053)" opacity="0.2"/>
      <path id="Path_4498" data-name="Path 4498" d="M573.641,380.521c-.6.38-1.936,1.076-1.416,2.174s2.365.634,3.229.162c1.321-.72,1.81-1.528,1.892-2.053C577.586,379.274,574.211,380.162,573.641,380.521Z" transform="translate(-562.018 -323.412)" fill="#7c571d"/>
      <path id="Path_4499" data-name="Path 4499" d="M613.854,379.8c-.445.557-1.6,1.8-.625,2.518,1.544,1.143,2.988-.384,3.649-1.112a2.144,2.144,0,0,0,.569-2.352C617.172,377.325,614.274,379.27,613.854,379.8Z" transform="translate(-590.506 -322.251)" fill="#7c571d"/>
      <path id="Path_4500" data-name="Path 4500" d="M545.717,256.518c-.545-.106-6.368-4.046-7.073-4.526-.343-.234.347,1.024,1.851,2.012-1.5-.583-.006.659.658,1.185,1.947,1.542,4.557,3.852,5.657,3.751.687-.063,3.189-3.08,4.741-4.709l-1.614-1.784C548.092,254.612,546.268,256.625,545.717,256.518Z" transform="translate(-538.558 -233.923)" fill="#d7c8af"/>
      <path id="Path_4501" data-name="Path 4501" d="M593.226,238.607c-1.721-2.4-3.544-4.812-3.942-5.252a14.4,14.4,0,0,0-2.769-1.855c-1.035.8-2.07.369-3.106-.143a16.793,16.793,0,0,0-2.7,1.725c-.666.552-2.5,2.827-4.313,4.955l1.614,1.784c.825-.867,1.424-1.533,1.424-1.533s.258,5.127.786,8.11c.943,1.577,4.1,1.993,5.454,1.842s4.708-3.419,4.689-4.733c-.012-.822-.247-3.6-.247-3.6a4.315,4.315,0,0,1,1.1.811Z" transform="translate(-565.017 -219.514)" fill="#b2ddfb"/>
      <path id="Path_4502" data-name="Path 4502" d="M596.663,212.633c-.318-.175-.629-.338-.915-.476.977-.376,2.929-3.079,3.043-4.584s-2.367-3.155-3.494-3.195-4.329.615-4.382,1.754c-.111,2.357,1.344,5.134,3.276,6.031-.216.108-.427.217-.633.327C594.592,213,595.628,213.431,596.663,212.633Z" transform="translate(-575.165 -200.647)" fill="#d7c8af"/>
      <path id="Path_4503" data-name="Path 4503" d="M590.92,265.828s-1.483-6.646-1.24-7.689S591.092,248,591.092,248l.1-3.774-3.109-6.783.807-4.253-1.2-.756-.657,4.646h-2.18l-1.144-4.7-.959.589.473,4.5s-2.432,7.066-2.153,10.023a42.065,42.065,0,0,1,.063,7.862s-1.114,6.88-1.774,9.895-1.774,11.43-1.774,11.43a2.028,2.028,0,0,0,1.629,1.235c1.706.156,2.031.083,2.546-.431,0,0,2.491-17.926,3.483-17.3.729.459,1.207,4.178,2.016,7.946a85.107,85.107,0,0,0,2.331,8.947c.451.729,1.053.977,2.255,1.2a1.822,1.822,0,0,0,1.831-.851Z" transform="translate(-565.847 -220.23)" fill="#3fa9f5"/>
      <path id="Path_4504" data-name="Path 4504" d="M596.525,254.885c.677-.677,3.233-.6,3.909,0a31.777,31.777,0,0,1,.451,4.237c-.3.913-4.529.7-4.9.068S596.525,254.885,596.525,254.885Z" transform="translate(-578.649 -235.63)" fill="#2f7db5"/>
      <path id="Path_4505" data-name="Path 4505" d="M615.586,255.464l-2.01,2.116c1.314,1.211,3.089,3.434,2.466,3.808-.664.954-5.079,5.616-6.057,5.841-.066-.349-1.041-.583-1.366-.166-.663.851.1,1.808,1.184,1.945,1.332.169,8.731-6.47,8.731-8.02A20.49,20.49,0,0,0,615.586,255.464Z" transform="translate(-587.377 -236.371)" fill="#d7c8af"/>
      <path id="Path_4506" data-name="Path 4506" d="M588,197.7c2.109-.827,7.443-.289,9.4,1.741-.451-1.428.366-5.575-1.628-6.711a4.784,4.784,0,0,0-5.025-.071C589.025,193.789,588.831,196.569,588,197.7Z" transform="translate(-573.131 -191.975)" fill="#fbb03b"/>
      <g id="Group_2835" data-name="Group 2835" transform="translate(20.786 28.169)">
        <path id="Path_4507" data-name="Path 4507" d="M607.677,285.772a5.348,5.348,0,0,1,1.992-.052l-.091,3.04-1.588.109Z" transform="translate(-607.677 -285.645)" fill="#393632"/>
        <path id="Path_4508" data-name="Path 4508" d="M609.328,287.8c0,.077-.1.14-.215.14s-.215-.063-.215-.14.1-.141.215-.141S609.328,287.724,609.328,287.8Z" transform="translate(-608.531 -287.055)" fill="#615e5b"/>
      </g>
    </g>
    <g id="Group_2837" data-name="Group 2837" transform="translate(7649 -2909.692)">
      <ellipse id="Ellipse_452" data-name="Ellipse 452" cx="5.767" cy="3.558" rx="5.767" ry="3.558" transform="translate(23.457 63.786)" opacity="0.3"/>
      <path id="Path_4509" data-name="Path 4509" d="M508.457,260.29,485,250.7V205l23.457,9.594Z" transform="translate(-477.751 -201.391)" fill="#00a99d" opacity="0.2"/>
      <path id="Path_4510" data-name="Path 4510" d="M559.5,219l-1.5.9v59.545l1.5-.9Z" transform="translate(-528.798 -211.181)" fill="#bda996"/>
      <path id="Path_4511" data-name="Path 4511" d="M554,219v59.545l1.2.9V219.9Z" transform="translate(-526.001 -211.181)" fill="#917050"/>
      <ellipse id="Ellipse_453" data-name="Ellipse 453" cx="5.767" cy="3.558" rx="5.767" ry="3.558" transform="translate(0 55.967)" opacity="0.3"/>
      <path id="Path_4512" data-name="Path 4512" d="M476,193v59.545l1.2.6V193.6Z" transform="translate(-471.458 -193)" fill="#917050"/>
      <path id="Path_4513" data-name="Path 4513" d="M481.5,193l-1.5.6v59.545l1.5-.6Z" transform="translate(-474.255 -193)" fill="#bda996"/>
    </g>
    <g id="Group_2838" data-name="Group 2838" transform="translate(7662.865 -2894.956)">
      <path id="Path_4514" data-name="Path 4514" d="M515.09,250.9a6.79,6.79,0,0,1-2.588,1.926l-4.626-1.8a1.634,1.634,0,0,1-.876-1.234v-7.273c0-.284.392-.515.876-.515l4.626,1.8a3.421,3.421,0,0,1,1.615,1.528A43.983,43.983,0,0,1,515.09,250.9Z" transform="translate(-507 -242)" fill="#ccc"/>
      <path id="Path_4515" data-name="Path 4515" d="M512.466,243.791c-1.291-.609-4.591-1.791-4.591-1.791-.484,0-.876.231-.876.515l5.063,2.016a1.131,1.131,0,0,1,.266.269l1.024-.466A4.038,4.038,0,0,0,512.466,243.791Z" transform="translate(-507 -242)" fill="#8d8d8d"/>
      <path id="Path_4516" data-name="Path 4516" d="M526.509,250.758a2.831,2.831,0,0,0-.764-1l-1.024.466a.833.833,0,0,1,.165.415l.007,7.612a6.79,6.79,0,0,0,2.588-1.926A48.724,48.724,0,0,0,526.509,250.758Z" transform="translate(-519.392 -247.425)" fill="#a9a9a9"/>
    </g>
    <text id="Sign_In" data-name="Sign In" transform="translate(7653 -2824)" fill="#0071bc" font-size="16" font-family="Arial-BoldMT, Arial" font-weight="700"><tspan x="0" y="0">Sign In</tspan></text>
  </g>
</svg>
