<svg xmlns="http://www.w3.org/2000/svg" width="1427" height="92" viewBox="0 0 1427 92">
  <g id="Group_3902" data-name="Group 3902" transform="translate(-6847 3079.102)">
    <g id="Group_3901" data-name="Group 3901" transform="translate(6847 -3079.102)">
      <path id="Path_5616" data-name="Path 5616" d="M0,60.767c37.074,29.344,373.628,87.99,553.7,37.558s374.27-44.823,532.322-3.633S1383.266,85.575,1427,70.245v78.615H0Z" transform="translate(0 -56.861)" fill="#662d91" opacity="0.1"/>
      <path id="Path_5617" data-name="Path 5617" d="M1427,60.767c-37.074,29.344-373.629,87.99-553.7,37.558S499.035,53.5,340.982,94.693,43.734,85.575,0,70.245v78.615H1427Z" transform="translate(0 -56.861)" fill="#d9e021" opacity="0.1"/>
      <path id="Path_5618" data-name="Path 5618" d="M0,89.877c141.679-64.514,333.439-38.713,553.7,2.367s375.982-55.009,532.346-38.723C1247.63,70.35,1327.389,107.411,1427,86.343v56.436H0Z" transform="translate(0 -50.779)" fill="#29abe2" opacity="0.1"/>
    </g>
  </g>
</svg>
