<svg xmlns="http://www.w3.org/2000/svg" width="1427" height="62.871" viewBox="0 0 1427 62.871">
  <g id="Group_3883" data-name="Group 3883" transform="translate(0 -50.779)">
    <path id="Path_5616" data-name="Path 5616" d="M0,60.767C37.074,80.82,373.628,120.9,553.7,86.434s374.27-30.631,532.322-2.483S1383.266,77.721,1427,67.244v53.724H0Z" transform="translate(0 -7.318)" fill="#662d91" opacity="0.1"/>
    <path id="Path_5617" data-name="Path 5617" d="M1427,60.767C1389.926,80.82,1053.371,120.9,873.3,86.434S499.035,55.8,340.982,83.951,43.734,77.721,0,67.244v53.724H1427Z" transform="translate(0 -7.318)" fill="#d9e021" opacity="0.1"/>
    <path id="Path_5618" data-name="Path 5618" d="M0,77.5C141.679,33.41,333.439,51.042,553.7,79.115s375.982-37.592,532.346-26.463C1247.63,64.154,1327.389,89.48,1427,75.083V113.65H0Z" transform="translate(0 0)" fill="#29abe2" opacity="0.1"/>
  </g>
</svg>
