<svg xmlns="http://www.w3.org/2000/svg" width="64" height="75" viewBox="0 0 64 75">
  <g id="Group_82" data-name="Group 82" transform="translate(-536 -105.5)">
    <path id="Path_922" data-name="Path 922" d="M599.344,170.9l.724-.1-4.677-33.323-.724.1-.207-.7-24.648,7.283,2.426-18.868,16.485-4.548-.194-.7.216-.7-33.03-10.231-.216.7-.73.025.854,25.182-.283.36.288.227-18.1,23.156.881.689-.212.119,11.984,21.338.637-.358.37.63,26.623-15.626,21.33,6.053Zm-27.571-47-13.422-12.446L585.928,120ZM570.8,125l-2.418,18.808-11.3-8.918-.791-23.349Zm-16.77,35.644,1.017-8.181,12.275-5.72-7.544,14.722Zm5.043,2.2-7.018,13.7,1.8-14.442Zm-6.49-2.4-11.211-1.6,12.112-5.644Zm14.975-15.417-12.3,5.731,1.747-14.056Zm1.34,1.85,7.6,16.985-15.2-2.171Zm-15.2,4.61-13.561,6.32,15.192-19.44ZM552.4,161.886l-2.034,16.367L540.2,160.142Zm8.2,1.172,14.936,2.134-22.924,13.455Zm10.319-15.247,25.368,21.465-18.05-5.122Zm27.431,21.3L570.45,145.5l23.611-6.976Z" transform="translate(-1.083 -2.556)" fill="rgba(0,206,255,0.5)"/>
    <g id="Group_81" data-name="Group 81" transform="translate(536 105.5)">
      <circle id="Ellipse_416" data-name="Ellipse 416" cx="2" cy="2" r="2" transform="translate(0 49)" fill="#00b4ff"/>
      <circle id="Ellipse_417" data-name="Ellipse 417" cx="2.5" cy="2.5" r="2.5" transform="translate(29 34)" fill="#00b4ff"/>
      <circle id="Ellipse_418" data-name="Ellipse 418" cx="2" cy="2" r="2" transform="translate(32 15)" fill="#00b4ff"/>
      <circle id="Ellipse_419" data-name="Ellipse 419" cx="2" cy="2" r="2" transform="translate(49 10)" fill="#00b4ff"/>
      <circle id="Ellipse_420" data-name="Ellipse 420" cx="2" cy="2" r="2" transform="translate(17)" fill="#00b4ff"/>
      <circle id="Ellipse_421" data-name="Ellipse 421" cx="2" cy="2" r="2" transform="translate(17 26)" fill="#00b4ff"/>
      <circle id="Ellipse_422" data-name="Ellipse 422" cx="2" cy="2" r="2" transform="translate(60 61)" fill="#00b4ff"/>
      <circle id="Ellipse_423" data-name="Ellipse 423" cx="2" cy="2" r="2" transform="translate(56 28)" fill="#00b4ff"/>
      <circle id="Ellipse_424" data-name="Ellipse 424" cx="2" cy="2" r="2" transform="translate(38 55)" fill="#00b4ff"/>
      <circle id="Ellipse_425" data-name="Ellipse 425" cx="2" cy="2" r="2" transform="translate(12 71)" fill="#00b4ff"/>
    </g>
  </g>
</svg>
