<svg xmlns="http://www.w3.org/2000/svg" width="59.148" height="76" viewBox="0 0 59.148 76">
  <g id="Group_91" data-name="Group 91" transform="translate(-808 -114)">
    <g id="Group_89" data-name="Group 89" transform="translate(808 114)">
      <path id="Path_937" data-name="Path 937" d="M833.774,199.757H808V172h25.774ZM809.652,198.1h22.469V173.652H809.652Z" transform="translate(-808 -152.835)" fill="rgba(0,206,255,0.5)"/>
      <path id="Path_938" data-name="Path 938" d="M879.1,142.087H852V114h27.1Zm-25.444-1.652h23.791V115.652H853.652Z" transform="translate(-837.461 -114)" fill="rgba(0,206,255,0.5)"/>
      <path id="Path_939" data-name="Path 939" d="M924.809,183.078H903V154h21.809Zm-20.157-1.652h18.5V155.652h-18.5Z" transform="translate(-871.609 -140.783)" fill="rgba(0,206,255,0.5)"/>
      <path id="Path_940" data-name="Path 940" d="M939.461,234.757H916V207h23.461ZM917.652,233.1h20.157V208.652H917.652Z" transform="translate(-880.313 -176.27)" fill="rgba(0,206,255,0.5)"/>
      <path id="Path_941" data-name="Path 941" d="M855.826,252.1H836V226h19.826Zm-18.174-1.652h16.522v-22.8H837.652Z" transform="translate(-826.748 -188.991)" fill="rgba(0,206,255,0.5)"/>
      <path id="Path_942" data-name="Path 942" d="M890.461,292.443H867V267h23.461Zm-21.809-1.652h20.156V268.652H868.652Z" transform="translate(-847.504 -216.443)" fill="rgba(0,206,255,0.5)"/>
    </g>
    <rect id="Rectangle_487" data-name="Rectangle 487" width="7" height="3" transform="translate(819 153)" fill="#00b4ff"/>
    <rect id="Rectangle_488" data-name="Rectangle 488" width="3" height="7" transform="translate(841 134)" fill="#00b4ff"/>
    <rect id="Rectangle_489" data-name="Rectangle 489" width="7" height="4" transform="translate(826 135)" fill="#00b4ff"/>
    <rect id="Rectangle_490" data-name="Rectangle 490" width="2" height="13" transform="translate(837 146)" fill="#00b4ff"/>
    <rect id="Rectangle_491" data-name="Rectangle 491" width="3" height="3" transform="translate(851 161)" fill="#00b4ff"/>
    <rect id="Rectangle_492" data-name="Rectangle 492" width="3" height="4" transform="translate(833 172)" fill="#00b4ff"/>
  </g>
</svg>
