<svg xmlns="http://www.w3.org/2000/svg" xmlns:xlink="http://www.w3.org/1999/xlink" width="54.605" height="66.538" viewBox="0 0 54.605 66.538">
  <defs>
    <linearGradient id="linear-gradient" x1="0.5" x2="0.5" y2="1" gradientUnits="objectBoundingBox">
      <stop offset="0" stop-color="#00ceff"/>
      <stop offset="1" stop-color="#00baff" stop-opacity="0.302"/>
    </linearGradient>
  </defs>
  <g id="Group_99" data-name="Group 99" transform="translate(-529.197 -372)">
    <path id="Subtraction_70" data-name="Subtraction 70" d="M-6547,4285.539h0a36.2,36.2,0,0,1-3.4-3.862c-1.552-2.048-3.4-5.031-3.4-7.616,0-5,3.052-9.059,6.8-9.059s6.8,4.064,6.8,9.059c0,2.584-1.85,5.568-3.4,7.616a36.2,36.2,0,0,1-3.4,3.862Zm0-15.73a3.384,3.384,0,0,0-3.43,3.327,3.385,3.385,0,0,0,3.43,3.329,3.384,3.384,0,0,0,3.429-3.329A3.383,3.383,0,0,0-6547,4269.808Z" transform="translate(7098 -3893)" fill="url(#linear-gradient)"/>
    <path id="Subtraction_73" data-name="Subtraction 73" d="M-6547,4285.539h0a36.2,36.2,0,0,1-3.4-3.862c-1.552-2.048-3.4-5.031-3.4-7.616,0-5,3.052-9.059,6.8-9.059s6.8,4.064,6.8,9.059c0,2.584-1.85,5.568-3.4,7.616a36.2,36.2,0,0,1-3.4,3.862Zm0-15.73a3.384,3.384,0,0,0-3.43,3.327,3.385,3.385,0,0,0,3.43,3.329,3.384,3.384,0,0,0,3.429-3.329A3.383,3.383,0,0,0-6547,4269.808Z" transform="translate(7124 -3868)" fill="url(#linear-gradient)"/>
    <path id="Subtraction_74" data-name="Subtraction 74" d="M-6547,4285.539h0a36.2,36.2,0,0,1-3.4-3.862c-1.552-2.048-3.4-5.031-3.4-7.616,0-5,3.052-9.059,6.8-9.059s6.8,4.064,6.8,9.059c0,2.584-1.85,5.568-3.4,7.616a36.2,36.2,0,0,1-3.4,3.862Zm0-15.73a3.384,3.384,0,0,0-3.43,3.327,3.385,3.385,0,0,0,3.43,3.329,3.384,3.384,0,0,0,3.429-3.329A3.383,3.383,0,0,0-6547,4269.808Z" transform="translate(7083 -3847)" fill="url(#linear-gradient)"/>
  </g>
</svg>
