<svg id="warning" xmlns="http://www.w3.org/2000/svg" width="16" height="16" viewBox="0 0 16 16">
  <path id="Subtraction_72" data-name="Subtraction 72" d="M-6547,4281a8.009,8.009,0,0,1-8-8,8.009,8.009,0,0,1,8-8,8.009,8.009,0,0,1,8,8A8.009,8.009,0,0,1-6547,4281Zm-.26-4.448a1.15,1.15,0,0,0-1.148,1.15,1.151,1.151,0,0,0,1.148,1.151,1.153,1.153,0,0,0,1.151-1.151A1.152,1.152,0,0,0-6547.26,4276.552Zm-.008-9.7a1.374,1.374,0,0,0-1.1.537,4.988,4.988,0,0,0-.462,3.93c.093.466.171.9.248,1.329l0,.015c.325,1.813.56,3.122,1.313,3.122.785,0,1.044-1.5,1.373-3.4l.02-.115c.054-.309.109-.627.169-.953a5.136,5.136,0,0,0-.509-3.954A1.323,1.323,0,0,0-6547.269,4266.852Z" transform="translate(6555 -4265)" fill="#ff852c"/>
</svg>
