<svg id="配件管理" xmlns="http://www.w3.org/2000/svg" width="16" height="13.852" viewBox="0 0 16 13.852">
  <path id="Union_40" data-name="Union 40" d="M-4498,4274.852a6.542,6.542,0,0,1,.748-3.121,1.509,1.509,0,0,1,1.252-.879c1.1,0,2,1.791,2,4s-.9,4-2,4S-4498,4277.061-4498,4274.852Zm-12,0c0-2.209.9-4,2-4s2,1.791,2,4-.9,4-2,4S-4510,4277.061-4510,4274.852Zm4.237,3a11.539,11.539,0,0,0,.47-3,11.527,11.527,0,0,0-.47-3H-4504v-3h-1.234a.8.8,0,0,1-.8-.8l.034-1.684a.8.8,0,0,1,.8-.8l3.116-.567,3.284.567a.8.8,0,0,1,.8.8l-.034,1.684a.8.8,0,0,1-.8.8H-4500v3h1.762a10.74,10.74,0,0,0-.508,3,10.751,10.751,0,0,0,.508,3Z" transform="translate(4510 -4265)" fill="#23282e"/>
</svg>
