<svg id="客户管理" xmlns="http://www.w3.org/2000/svg" width="14" height="16.001" viewBox="0 0 14 16.001">
  <path id="Union_37" data-name="Union 37" d="M-4496,4281h-.644l-4.45,0h-.723l-5.639,0c-1.676,0-2.531,0-2.542,0a8.272,8.272,0,0,1,2.05-5.073,6.583,6.583,0,0,1,4.951-2.594,6.578,6.578,0,0,1,4.95,2.6A8.4,8.4,0,0,1-4496,4281h0Zm-6.695-1.668h3.711a3.722,3.722,0,0,0-1.075-2.36,4.017,4.017,0,0,0-2.946-1.3,3.918,3.918,0,0,0-2.924,1.371,3.883,3.883,0,0,0-1.055,2.293c.008,0,.438,0,1.313,0ZM-4507,4269a4,4,0,0,1,4-4,4,4,0,0,1,4,4,4.006,4.006,0,0,1-4,4A4,4,0,0,1-4507,4269Zm1.8,0a2.2,2.2,0,0,0,2.2,2.2,2.2,2.2,0,0,0,2.2-2.2,2.2,2.2,0,0,0-2.2-2.2A2.2,2.2,0,0,0-4505.2,4269Z" transform="translate(4510 -4265)" fill="#23282e"/>
</svg>
