<svg id="群发通知" xmlns="http://www.w3.org/2000/svg" width="16" height="16" viewBox="0 0 16 16">
  <path id="Subtraction_63" data-name="Subtraction 63" d="M-4497,4281v0l-3-3h-5l1.828-2H-4497a1,1,0,0,0,1-1v-6h1a1,1,0,0,1,1,1v7a1,1,0,0,1-1,1h-2v3Zm-10-4v-3h-2a1,1,0,0,1-1-1v-7a1,1,0,0,1,1-1h10a1,1,0,0,1,1,1v7a1,1,0,0,1-1,1h-5l-3,3Zm6-9a1,1,0,0,0-1,1,1,1,0,0,0,1,1,1,1,0,0,0,1-1A1,1,0,0,0-4501,4268Zm-3,0a1,1,0,0,0-1,1,1,1,0,0,0,1,1,1,1,0,0,0,1-1A1,1,0,0,0-4504,4268Zm-3,0a1,1,0,0,0-1,1,1,1,0,0,0,1,1,1,1,0,0,0,1-1A1,1,0,0,0-4507,4268Z" transform="translate(4510 -4265)" fill="#23282e"/>
</svg>
