<svg id="服务部门" xmlns="http://www.w3.org/2000/svg" width="12.154" height="15.622" viewBox="0 0 12.154 15.622">
  <path id="Subtraction_61" data-name="Subtraction 61" d="M-4507.167,4281.877v0l.006-.031a15.536,15.536,0,0,1,1.224-4.167c.139-.189.248-.277.342-.277.116,0,.2.129.314.292a1.152,1.152,0,0,0,.96.641h.013c.472,0,1.3-.869,1.307-.878.008.009.765.878,1.233.878h.019a1.163,1.163,0,0,0,.976-.637c.114-.165.2-.293.32-.293.1,0,.2.087.34.275a17.6,17.6,0,0,1,1.277,4.2l-4.166-2.264-4.164,2.266Zm2.69-4.131a.553.553,0,0,1-.55-.405l-.379-1.407-1.471.4a.586.586,0,0,1-.153.021.586.586,0,0,1-.467-.233.511.511,0,0,1-.084-.454l.418-1.39-1.487-.36a.544.544,0,0,1-.412-.391.508.508,0,0,1,.158-.514l1.092-1.011-1.092-1.009a.509.509,0,0,1-.158-.515.544.544,0,0,1,.412-.39l1.487-.36-.418-1.392a.507.507,0,0,1,.083-.451.585.585,0,0,1,.467-.233.586.586,0,0,1,.154.021l1.471.4.379-1.408a.558.558,0,0,1,.556-.4.564.564,0,0,1,.4.162l1.067,1.041,1.068-1.041a.565.565,0,0,1,.4-.162.558.558,0,0,1,.556.4l.379,1.407,1.471-.4a.586.586,0,0,1,.154-.021.586.586,0,0,1,.467.233.507.507,0,0,1,.083.451l-.419,1.392,1.487.36a.544.544,0,0,1,.412.39.509.509,0,0,1-.158.515l-1.092,1.009,1.092,1.012a.506.506,0,0,1,.158.514.544.544,0,0,1-.412.391l-1.488.36.419,1.39a.511.511,0,0,1-.084.454.586.586,0,0,1-.467.233.586.586,0,0,1-.153-.021l-1.471-.4-.379,1.407a.56.56,0,0,1-.555.4.557.557,0,0,1-.4-.165l-1.068-1.033-1.067,1.033A.573.573,0,0,1-4504.476,4277.746ZM-4503,4270a2,2,0,0,0-2,2,2,2,0,0,0,2,2,2,2,0,0,0,2-2A2,2,0,0,0-4503,4270Z" transform="translate(4509.077 -4266.255)" fill="#23282e"/>
</svg>
