<svg id="IoT设备" xmlns="http://www.w3.org/2000/svg" width="16.999" height="17.999" viewBox="0 0 16.999 17.999">
  <path id="Subtraction_67" data-name="Subtraction 67" d="M-4501,4283a3.013,3.013,0,0,1-2.88-2.161,13.9,13.9,0,0,1-2.221-.47,4.874,4.874,0,0,1-2.918-1.9c-.655-1.156-.341-2.934.038-4.222A3,3,0,0,1-4510,4272a3,3,0,0,1,3-3,3.135,3.135,0,0,1,.537.047,14.675,14.675,0,0,1,2.422-2.8,4.278,4.278,0,0,1,2.645-1.25,4.264,4.264,0,0,1,2.632,1.239,14.636,14.636,0,0,1,2.415,2.781,3.085,3.085,0,0,1,.351-.02,3,3,0,0,1,3,3,2.982,2.982,0,0,1-.858,2.1c.41,1.338.756,3.184.083,4.372a4.869,4.869,0,0,1-2.918,1.9,12.911,12.911,0,0,1-1.39.337A2.989,2.989,0,0,1-4501,4283Zm0-4a1,1,0,0,0-1,1,1,1,0,0,0,1,1,1,1,0,0,0,1-1A1,1,0,0,0-4501,4279Zm-6.144-4a3.368,3.368,0,0,0,.174,2.254,3.564,3.564,0,0,0,2.134,1.385,9.458,9.458,0,0,0,1.049.253A2.986,2.986,0,0,1-4501,4277a3.013,3.013,0,0,1,2.721,1.734,3.992,3.992,0,0,0,2.454-1.484,3.421,3.421,0,0,0,.172-2.27,3.181,3.181,0,0,1-.346.019,3,3,0,0,1-3-3,2.978,2.978,0,0,1,.927-2.168c-.686-.908-2.03-2.432-3.324-2.432-1.331,0-2.709,1.6-3.413,2.55A2.99,2.99,0,0,1-4504,4272a3,3,0,0,1-3,3c-.056,0-.1,0-.144,0Zm11.145-4a1,1,0,0,0-1,1,1,1,0,0,0,1,1,1,1,0,0,0,1-1A1,1,0,0,0-4496,4271Zm-11,0a1,1,0,0,0-1,1,1,1,0,0,0,1,1,1,1,0,0,0,1-1A1,1,0,0,0-4507,4271Z" transform="translate(4510 -4265)" fill="#23282e"/>
</svg>
