<svg id="系统帮助" xmlns="http://www.w3.org/2000/svg" width="16" height="16" viewBox="0 0 16 16">
  <path id="question-circle" d="M16,8a8,8,0,1,0,8,8A8,8,0,0,0,16,8Zm0,14.452A6.452,6.452,0,1,1,22.452,16,6.448,6.448,0,0,1,16,22.452Zm3.459-8.232c0,2.163-2.336,2.2-2.336,3v.2a.387.387,0,0,1-.387.387H15.264a.387.387,0,0,1-.387-.387V17.14c0-1.153.874-1.614,1.535-1.984.566-.318.914-.534.914-.954,0-.556-.71-.926-1.283-.926-.748,0-1.093.354-1.579.967a.387.387,0,0,1-.538.069l-.9-.681a.388.388,0,0,1-.085-.528,3.626,3.626,0,0,1,3.244-1.748A3.2,3.2,0,0,1,19.459,14.219Zm-2.1,5.394A1.355,1.355,0,1,1,16,18.258,1.356,1.356,0,0,1,17.355,19.613Z" transform="translate(-8 -8)" fill="#23282e"/>
</svg>
