<svg id="知识管理" xmlns="http://www.w3.org/2000/svg" width="16" height="12.188" viewBox="0 0 16 12.188">
  <path id="Subtraction_62" data-name="Subtraction 62" d="M-4502.028,4277.188a4.878,4.878,0,0,1-2.639-.707c-.164-.106-.241-.213-.231-.316.021-.194.337-.34.611-.447a.484.484,0,0,1,.172-.028,2.1,2.1,0,0,1,.812.266,3.247,3.247,0,0,0,1.275.525,3.354,3.354,0,0,0,1.291-.525,2.256,2.256,0,0,1,.845-.266.517.517,0,0,1,.177.028c.278.1.6.25.619.444.011.1-.069.211-.238.318A5.228,5.228,0,0,1-4502.028,4277.188Zm7.266-.76h0a4.994,4.994,0,0,0-2.959-1.523,8.633,8.633,0,0,0-3.135.761h0a.762.762,0,0,1-.762-.761v-8.381c0-.417.754-.758.762-.761a8.636,8.636,0,0,1,3.135-.763,4.7,4.7,0,0,1,2.432.985c.711.5,1.29,1.082,1.29,1.3v8.38A.763.763,0,0,1-4494.762,4276.429Zm-3.054-3.526a4.505,4.505,0,0,1,2.292.87v-5.639a3.932,3.932,0,0,0-2.292-1.248,4.9,4.9,0,0,0-2.28.75v5.771l0,0A6.517,6.517,0,0,1-4497.815,4272.9Zm-11.422,3.526h0a.763.763,0,0,1-.762-.762v-8.38c0-.215.618-.8,1.377-1.3a5.108,5.108,0,0,1,2.52-.985,7.294,7.294,0,0,1,2.96.763c.007,0,.761.345.761.761v8.381a.762.762,0,0,1-.761.761,7.343,7.343,0,0,0-2.96-.761,5.745,5.745,0,0,0-3.135,1.523Zm3.186-9.43a4.443,4.443,0,0,0-2.425,1.294v5.693l.006,0a4.823,4.823,0,0,1,2.419-1,6.3,6.3,0,0,1,2.146.421v-5.839A5.017,5.017,0,0,0-4506.052,4267Z" transform="translate(4510 -4265)" fill="#23282e"/>
</svg>
