<svg id="报单管理" xmlns="http://www.w3.org/2000/svg" width="16.002" height="18.001" viewBox="0 0 16.002 18.001">
  <path id="Union_36" data-name="Union 36" d="M-4498.2,4282.3v-2.1h-2.1a.7.7,0,0,1-.7-.7.7.7,0,0,1,.7-.7h2.1v-2.1a.7.7,0,0,1,.7-.7.7.7,0,0,1,.7.7v2.1h2.1a.7.7,0,0,1,.7.7.7.7,0,0,1-.7.7h-2.1v2.1a.7.7,0,0,1-.7.7A.7.7,0,0,1-4498.2,4282.3Zm-11.8-1.3v-15a.947.947,0,0,1,1-1h12a.947.947,0,0,1,1,1v9.255a4.486,4.486,0,0,0-1.5-.256,4.506,4.506,0,0,0-4.5,4.5,4.469,4.469,0,0,0,.032.53L-4503,4279l-2,2-2-2-3,2h0Zm3-6h8v-2h-8Zm0-4h8v-2h-8Z" transform="translate(4510 -4265)" fill="#23282e"/>
</svg>
