<svg id="工单管理" xmlns="http://www.w3.org/2000/svg" width="16" height="13.5" viewBox="0 0 16 13.5">
  <path id="tasks" d="M6.475,35.1h9a.5.5,0,0,0,.5-.5v-1.25a.5.5,0,0,0-.5-.5h-9a.5.5,0,0,0-.5.5V34.6A.5.5,0,0,0,6.475,35.1Zm0,5h9a.5.5,0,0,0,.5-.5V38.35a.5.5,0,0,0-.5-.5h-9a.5.5,0,0,0-.5.5V39.6A.5.5,0,0,0,6.475,40.1Zm0,5h9a.5.5,0,0,0,.5-.5V43.35a.5.5,0,0,0-.5-.5h-9a.5.5,0,0,0-.5.5V44.6A.5.5,0,0,0,6.475,45.1Zm-4.5-2.625a1.5,1.5,0,1,0,0,3,1.5,1.5,0,0,0,0-3Zm2.89-9.343L2.61,35.388l-.487.487a.4.4,0,0,1-.55,0L.085,34.394a.375.375,0,0,1,0-.531l.491-.491a.375.375,0,0,1,.531,0l.709.691,1.991-1.978a.375.375,0,0,1,.531,0l.531.516A.378.378,0,0,1,4.866,33.132Zm0,4.987L2.61,40.375l-.491.491a.4.4,0,0,1-.55,0L.085,39.382a.375.375,0,0,1,0-.531l.491-.491a.375.375,0,0,1,.531,0l.709.691L3.807,37.06a.375.375,0,0,1,.531,0l.531.531a.374.374,0,0,1,0,.528Z" transform="translate(0.025 -31.975)" fill="#23282e"/>
</svg>
