<svg id="服务部门" xmlns="http://www.w3.org/2000/svg" width="92" height="92" viewBox="0 0 92 92">
  <text id="Departments" transform="translate(0 89)" fill="#203e5d" font-size="16" font-family="ArialMT, Arial"><tspan x="0" y="0">Departments</tspan></text>
  <g id="Group_662" data-name="Group 662" transform="translate(16.929)">
    <g id="Group_660" data-name="Group 660" transform="translate(7.153 48.207)">
      <path id="Path_1613" data-name="Path 1613" d="M970.594,345.087l-2.377-7.151-7.147-2.389,12.029-12.01,9.524,9.54Z" transform="translate(-961.07 -323.537)" fill="#8b6a08"/>
    </g>
    <g id="Group_661" data-name="Group 661" transform="translate(28.49 47.968)">
      <path id="Path_1614" data-name="Path 1614" d="M1068.571,344.2l2.194-7.209,7.084-2.57-12.532-11.948-9.278,9.779Z" transform="translate(-1056.039 -322.476)" fill="#8b6a08"/>
    </g>
    <path id="Path_1615" data-name="Path 1615" d="M957.992,170.723a9.493,9.493,0,0,1-4.924-17.609l-6.3-10.365-7.619-2.424a2.113,2.113,0,0,0-2.155.448,2.185,2.185,0,0,0-.408,2.376l2.261,7.489-8.017,1.706a2.023,2.023,0,0,0-1.528,1.411c-.284,1.028.314,1.829,1.251,2.554l5.367,4.91-5.529,5.042a2.3,2.3,0,0,0-1.088,2.426c.274.988,1.128,1.386,2.227,1.548l7.313,1.518-2.047,6.91c-.458,1.138-.583,2.168.209,2.934s1.768.639,2.853.194l7.025-2.269,1.71,6.921c.169,1.272.575,2.284,1.694,2.573,1.309.339,1.932-.382,2.738-.8l5.055-5.954,4.435,5.16c.963,1.106,1.965,1.88,3.079,1.593,1.163-.3,1.569-1.367,1.738-2.7l1.751-6.808.036.011-6.189-10.184A9.446,9.446,0,0,1,957.992,170.723Z" transform="translate(-929.23 -133.197)" fill="#cb9b0c"/>
    <path id="Path_1616" data-name="Path 1616" d="M1045.93,141.769l-5.174-4.778,5.588-5.1a2.254,2.254,0,0,0,1.026-2.381A2.222,2.222,0,0,0,1045.4,128l-7.627-1.563,1.943-6.83c.489-1.193.643-2.277-.188-3.076-.8-.767-1.809-.647-2.914-.191l-7.023,2.233-1.949-7.914a2.141,2.141,0,0,0-1.515-1.618,2.313,2.313,0,0,0-2.384.961l-5.277,5.67-5.14-5.508a2.42,2.42,0,0,0-2.525-1.122c-1.083.284-1.5,1.24-1.673,2.454l-1.707,7.069-.128-.041,6.3,10.365a9.493,9.493,0,0,1,9.861,16.225l6.189,10.184,6.4,2c1.32.654,2.541.976,3.474.086.775-.738.694-1.728.285-2.826l-2.023-7.059,7.2-1.461c1.172-.143,2.094-.528,2.387-1.563C1047.679,143.378,1046.978,142.537,1045.93,141.769Z" transform="translate(-989.756 -108.968)" fill="#e0c36d"/>
  </g>
</svg>
