<svg id="消息中心" xmlns="http://www.w3.org/2000/svg" width="14" height="16" viewBox="0 0 14 16">
  <path id="Union_41" data-name="Union 41" d="M-4505,4279h4a2,2,0,0,1-2,2A2,2,0,0,1-4505,4279Zm-4-1a1,1,0,0,1-1-1,.974.974,0,0,1,.269-.679c.037-.04.076-.082.118-.125.6-.635,1.616-1.7,1.616-4.7a4.936,4.936,0,0,1,4-4.848V4266a1,1,0,0,1,1-1,1,1,0,0,1,1,1v.652l.008,0h.008c-.009.111-.015.228-.015.345a4.01,4.01,0,0,0,3.974,4c.016.168.024.336.024.5,0,3,1.012,4.063,1.616,4.7l.1.106.016.017a.973.973,0,0,1,.269.679,1,1,0,0,1-1,1Zm8.5-10.75a2.25,2.25,0,0,1,2.25-2.249,2.25,2.25,0,0,1,2.25,2.249,2.25,2.25,0,0,1-2.25,2.25A2.25,2.25,0,0,1-4500.5,4267.25Z" transform="translate(4510 -4265)" fill="#666"/>
</svg>
