<svg xmlns="http://www.w3.org/2000/svg" width="14" height="19" viewBox="0 0 14 19">
  <g id="Group_689" data-name="Group 689" transform="translate(-7726 4267)">
    <path id="Union_49" data-name="Union 49" d="M-4502.108,4281c-3.76,0-7.87-.006-7.892,0,0-3.3,3.134-7.666,7-7.666s7,4.391,7,7.666h-.762Zm-4.892-12a4,4,0,0,1,4-4,4,4,0,0,1,4,4,4,4,0,0,1-4,4A4,4,0,0,1-4507,4269Z" transform="translate(12236 -8529)" fill="#666"/>
    <g id="Rectangle_525" data-name="Rectangle 525" transform="translate(7730 -4267)" fill="rgba(255,255,255,0)" stroke="rgba(255,255,255,0)" stroke-width="1">
      <rect width="6" height="2" stroke="none"/>
      <rect x="0.5" y="0.5" width="5" height="1" fill="none"/>
    </g>
  </g>
</svg>
